<svg width="566" height="272" viewBox="0 0 566 272" fill="none" xmlns="http://www.w3.org/2000/svg">
<g clip-path="url(#clip0_50_3855)">
<path d="M129.686 237.793C131.086 226.536 138.062 215.445 148.798 211.781C144.564 223.368 144.565 236.078 148.801 247.664C150.45 252.127 152.75 256.918 151.198 261.415C150.233 264.214 147.871 266.355 145.231 267.693C142.59 269.032 139.66 269.67 136.767 270.295L136.197 270.766C131.604 260.394 128.286 249.05 129.686 237.793Z" fill="#F0F0F0"/>
<path d="M148.905 211.994C142.653 218.999 138.767 227.796 137.799 237.135C137.555 239.142 137.629 241.175 138.018 243.159C138.459 245.079 139.407 246.846 140.762 248.276C141.999 249.635 143.422 250.882 144.307 252.518C144.747 253.362 145.004 254.29 145.061 255.24C145.118 256.191 144.973 257.142 144.637 258.033C143.855 260.274 142.315 262.101 140.747 263.835C139.006 265.76 137.167 267.732 136.427 270.284C136.338 270.594 135.863 270.436 135.953 270.128C137.24 265.687 141.551 263.165 143.607 259.165C144.566 257.299 144.969 255.132 144.069 253.162C143.283 251.439 141.817 250.152 140.553 248.787C139.21 247.411 138.225 245.728 137.683 243.883C137.194 241.926 137.042 239.899 137.234 237.89C137.592 233.361 138.66 228.917 140.399 224.72C142.357 219.919 145.122 215.488 148.574 211.619C148.788 211.379 149.117 211.756 148.905 211.994Z" fill="white"/>
<path d="M137.934 234.11C136.389 233.735 135.028 232.823 134.093 231.537C133.159 230.25 132.712 228.674 132.832 227.089C132.858 226.768 133.357 226.793 133.332 227.114C133.217 228.59 133.633 230.058 134.506 231.254C135.379 232.45 136.65 233.294 138.091 233.635C138.404 233.709 138.245 234.184 137.934 234.11Z" fill="white"/>
<path d="M140.045 247.67C142.835 246.004 144.895 243.347 145.814 240.23C145.904 239.921 146.379 240.078 146.288 240.387C145.326 243.629 143.177 246.389 140.27 248.116C139.993 248.281 139.769 247.833 140.045 247.67Z" fill="white"/>
<path d="M142.821 220.392C143.389 220.662 144.015 220.786 144.642 220.754C145.27 220.723 145.879 220.535 146.417 220.21C146.692 220.042 146.915 220.489 146.642 220.656C146.046 221.013 145.373 221.219 144.679 221.256C143.986 221.293 143.294 221.159 142.665 220.867C142.603 220.844 142.552 220.799 142.523 220.74C142.493 220.682 142.487 220.614 142.506 220.551C142.527 220.488 142.572 220.437 142.631 220.407C142.69 220.377 142.758 220.372 142.821 220.392Z" fill="white"/>
<path d="M181.522 231.887C181.353 231.997 181.185 232.106 181.016 232.22C178.755 233.707 176.618 235.375 174.627 237.208C174.471 237.347 174.315 237.491 174.163 237.634C169.414 242.101 165.535 247.41 162.724 253.293C161.608 255.635 160.671 258.058 159.922 260.542C158.888 263.972 158.04 267.774 155.994 270.58C155.784 270.875 155.555 271.157 155.31 271.424H136.816C136.774 271.403 136.732 271.386 136.69 271.365L135.951 271.399C135.981 271.268 136.014 271.133 136.044 271.002C136.061 270.926 136.082 270.85 136.099 270.774C136.111 270.724 136.124 270.673 136.133 270.627C136.137 270.61 136.141 270.593 136.145 270.58C136.154 270.534 136.166 270.492 136.175 270.449C136.361 269.694 136.552 268.939 136.749 268.184C136.749 268.179 136.749 268.179 136.753 268.175C138.198 262.405 140.323 256.828 143.082 251.559C143.167 251.402 143.251 251.242 143.344 251.086C144.622 248.754 146.088 246.529 147.728 244.436C148.63 243.293 149.589 242.195 150.601 241.149C153.223 238.45 156.253 236.18 159.581 234.423C166.214 230.921 173.893 229.579 180.982 231.718C181.163 231.773 181.341 231.828 181.522 231.887Z" fill="#F0F0F0"/>
<path d="M181.48 232.122C172.271 233.951 163.872 238.635 157.476 245.51C156.073 246.965 154.908 248.633 154.024 250.451C153.221 252.25 152.913 254.231 153.134 256.189C153.304 258.019 153.689 259.871 153.41 261.71C153.254 262.649 152.901 263.545 152.374 264.338C151.847 265.131 151.159 265.804 150.353 266.312C148.38 267.631 146.051 268.162 143.755 268.603C141.206 269.092 138.55 269.559 136.423 271.151C136.165 271.344 135.881 270.933 136.138 270.74C139.84 267.97 144.8 268.551 148.849 266.596C150.739 265.683 152.365 264.195 152.833 262.081C153.242 260.232 152.847 258.322 152.659 256.471C152.416 254.564 152.643 252.627 153.321 250.828C154.109 248.97 155.208 247.261 156.57 245.772C159.583 242.372 163.111 239.466 167.027 237.162C171.481 234.507 176.356 232.634 181.442 231.623C181.756 231.561 181.793 232.06 181.48 232.122Z" fill="white"/>
<path d="M159.406 243.175C158.398 241.945 157.86 240.397 157.888 238.808C157.916 237.218 158.509 235.691 159.559 234.497C159.773 234.257 160.157 234.577 159.943 234.818C158.963 235.927 158.411 237.351 158.388 238.831C158.365 240.311 158.871 241.751 159.817 242.89C160.022 243.138 159.61 243.421 159.406 243.175Z" fill="white"/>
<path d="M152.927 255.273C156.158 255.622 159.402 254.741 162.012 252.805C162.27 252.613 162.555 253.025 162.297 253.216C159.577 255.226 156.199 256.136 152.837 255.765C152.517 255.729 152.608 255.237 152.927 255.273Z" fill="white"/>
<path d="M171.567 235.165C171.857 235.722 172.282 236.198 172.802 236.55C173.322 236.902 173.922 237.12 174.547 237.183C174.868 237.215 174.776 237.707 174.458 237.675C173.767 237.602 173.106 237.361 172.53 236.973C171.954 236.585 171.482 236.062 171.156 235.449C171.12 235.394 171.107 235.327 171.118 235.263C171.13 235.198 171.166 235.14 171.219 235.101C171.273 235.064 171.341 235.05 171.406 235.061C171.471 235.073 171.529 235.11 171.567 235.165Z" fill="white"/>
<path d="M462.553 241.773C461.343 232.042 455.312 222.453 446.031 219.286C449.691 229.303 449.69 240.291 446.028 250.308C444.602 254.165 442.614 258.307 443.956 262.195C444.791 264.615 446.832 266.465 449.115 267.623C451.397 268.78 453.931 269.332 456.432 269.872L456.924 270.279C460.895 261.313 463.764 251.505 462.553 241.773Z" fill="#F0F0F0"/>
<path d="M445.94 219.47C451.345 225.526 454.704 233.131 455.54 241.205C455.751 242.94 455.688 244.698 455.351 246.413C454.97 248.073 454.151 249.6 452.979 250.837C451.91 252.012 450.68 253.09 449.915 254.504C449.534 255.234 449.312 256.036 449.262 256.857C449.213 257.679 449.338 258.502 449.629 259.272C450.305 261.209 451.636 262.788 452.992 264.287C454.497 265.952 456.087 267.657 456.727 269.863C456.804 270.131 457.214 269.995 457.137 269.728C456.024 265.889 452.297 263.708 450.52 260.25C449.691 258.637 449.343 256.764 450.12 255.061C450.8 253.571 452.067 252.459 453.16 251.279C454.321 250.089 455.172 248.634 455.641 247.039C456.063 245.347 456.195 243.595 456.03 241.858C455.72 237.943 454.796 234.101 453.293 230.472C451.6 226.321 449.21 222.491 446.226 219.146C446.041 218.939 445.756 219.265 445.94 219.47Z" fill="white"/>
<path d="M455.424 238.59C456.759 238.265 457.936 237.477 458.744 236.365C459.552 235.253 459.938 233.891 459.834 232.52C459.812 232.243 459.38 232.264 459.402 232.542C459.502 233.818 459.142 235.087 458.387 236.121C457.633 237.155 456.534 237.885 455.288 238.179C455.018 238.244 455.155 238.654 455.424 238.59Z" fill="white"/>
<path d="M453.599 250.313C451.187 248.872 449.406 246.576 448.612 243.881C448.533 243.614 448.123 243.749 448.201 244.016C449.033 246.819 450.891 249.205 453.404 250.699C453.644 250.841 453.837 250.454 453.599 250.313Z" fill="white"/>
<path d="M451.2 226.731C450.709 226.964 450.168 227.071 449.626 227.044C449.083 227.016 448.556 226.854 448.092 226.573C447.854 226.428 447.661 226.815 447.897 226.959C448.412 227.268 448.994 227.446 449.593 227.477C450.193 227.509 450.791 227.394 451.335 227.141C451.388 227.121 451.432 227.082 451.458 227.032C451.483 226.981 451.489 226.922 451.473 226.868C451.454 226.814 451.415 226.769 451.364 226.743C451.313 226.717 451.254 226.713 451.2 226.731Z" fill="white"/>
<path d="M417.742 236.668C417.888 236.763 418.033 236.858 418.18 236.956C420.134 238.242 421.981 239.684 423.702 241.268C423.837 241.388 423.972 241.512 424.104 241.636C428.209 245.498 431.563 250.088 433.993 255.174C434.958 257.198 435.768 259.293 436.415 261.441C437.309 264.406 438.042 267.693 439.811 270.119C439.993 270.374 440.19 270.618 440.402 270.848H456.391C456.427 270.83 456.463 270.815 456.5 270.797L457.138 270.826C457.113 270.713 457.084 270.597 457.058 270.483C457.043 270.418 457.025 270.352 457.011 270.287C457 270.243 456.989 270.199 456.981 270.159C456.978 270.144 456.974 270.13 456.971 270.119C456.963 270.079 456.952 270.042 456.945 270.006C456.784 269.353 456.619 268.7 456.449 268.047C456.449 268.043 456.449 268.043 456.445 268.039C455.196 263.052 453.359 258.229 450.974 253.674C450.9 253.539 450.828 253.401 450.747 253.266C449.643 251.249 448.375 249.327 446.957 247.517C446.178 246.528 445.348 245.58 444.473 244.675C442.206 242.342 439.587 240.38 436.71 238.86C430.976 235.833 424.337 234.673 418.209 236.522C418.052 236.57 417.898 236.617 417.742 236.668Z" fill="#F0F0F0"/>
<path d="M417.777 236.871C425.739 238.452 433 242.502 438.529 248.445C439.742 249.703 440.749 251.145 441.513 252.717C442.208 254.272 442.473 255.985 442.282 257.677C442.136 259.259 441.803 260.86 442.043 262.45C442.179 263.262 442.484 264.036 442.94 264.722C443.395 265.408 443.99 265.989 444.686 266.429C446.392 267.569 448.406 268.028 450.391 268.409C452.595 268.832 454.89 269.236 456.73 270.613C456.952 270.779 457.198 270.424 456.976 270.257C453.776 267.862 449.487 268.365 445.986 266.674C444.353 265.885 442.947 264.599 442.543 262.771C442.189 261.173 442.531 259.521 442.693 257.921C442.903 256.272 442.707 254.597 442.121 253.042C441.439 251.437 440.49 249.959 439.312 248.672C436.708 245.732 433.657 243.22 430.272 241.228C426.421 238.933 422.207 237.314 417.81 236.44C417.538 236.386 417.507 236.817 417.777 236.871Z" fill="white"/>
<path d="M436.862 246.427C437.733 245.364 438.198 244.026 438.173 242.652C438.149 241.277 437.637 239.957 436.729 238.925C436.544 238.717 436.212 238.994 436.397 239.202C437.244 240.161 437.721 241.392 437.741 242.671C437.761 243.951 437.323 245.196 436.506 246.181C436.329 246.395 436.685 246.64 436.862 246.427Z" fill="white"/>
<path d="M442.462 256.885C439.669 257.188 436.865 256.426 434.608 254.752C434.385 254.586 434.139 254.942 434.362 255.108C436.713 256.845 439.634 257.631 442.539 257.31C442.816 257.28 442.738 256.855 442.462 256.885Z" fill="white"/>
<path d="M426.348 239.502C426.097 239.983 425.73 240.395 425.28 240.699C424.83 241.004 424.312 241.192 423.771 241.247C423.494 241.274 423.573 241.699 423.849 241.672C424.445 241.609 425.018 241.4 425.515 241.065C426.013 240.729 426.421 240.277 426.703 239.748C426.734 239.7 426.746 239.642 426.735 239.587C426.725 239.531 426.694 239.481 426.649 239.447C426.601 239.415 426.543 239.402 426.487 239.412C426.431 239.423 426.381 239.455 426.348 239.502Z" fill="white"/>
<path d="M495.926 20.3776H119.655C119.511 20.3776 119.372 20.3201 119.269 20.2177C119.167 20.1153 119.109 19.9764 119.109 19.8315C119.109 19.6867 119.167 19.5478 119.269 19.4454C119.372 19.3429 119.511 19.2854 119.655 19.2854H495.926C496.071 19.2854 496.21 19.3429 496.312 19.4454C496.415 19.5478 496.472 19.6867 496.472 19.8315C496.472 19.9764 496.415 20.1153 496.312 20.2177C496.21 20.3201 496.071 20.3776 495.926 20.3776Z" fill="#CACACA"/>
<path d="M131.947 12.7322C135.265 12.7322 137.954 10.0427 137.954 6.725C137.954 3.4073 135.265 0.717773 131.947 0.717773C128.629 0.717773 125.94 3.4073 125.94 6.725C125.94 10.0427 128.629 12.7322 131.947 12.7322Z" fill="#3F3D56"/>
<path d="M152.7 12.7322C156.017 12.7322 158.707 10.0427 158.707 6.725C158.707 3.4073 156.017 0.717773 152.7 0.717773C149.382 0.717773 146.692 3.4073 146.692 6.725C146.692 10.0427 149.382 12.7322 152.7 12.7322Z" fill="#3F3D56"/>
<path d="M173.452 12.7322C176.77 12.7322 179.459 10.0427 179.459 6.725C179.459 3.4073 176.77 0.717773 173.452 0.717773C170.134 0.717773 167.445 3.4073 167.445 6.725C167.445 10.0427 170.134 12.7322 173.452 12.7322Z" fill="#3F3D56"/>
<path d="M483.492 4.39196H468.747C468.458 4.39196 468.18 4.27689 467.975 4.07206C467.77 3.86723 467.655 3.58942 467.655 3.29974C467.655 3.01007 467.77 2.73225 467.975 2.52742C468.18 2.32259 468.458 2.20752 468.747 2.20752H483.493C483.636 2.20719 483.778 2.2352 483.911 2.28994C484.044 2.34468 484.165 2.42508 484.266 2.52654C484.368 2.62799 484.449 2.74851 484.504 2.88119C484.559 3.01386 484.587 3.1561 484.587 3.29974C484.587 3.44339 484.559 3.58562 484.504 3.7183C484.449 3.85098 484.368 3.97149 484.266 4.07295C484.165 4.1744 484.044 4.2548 483.911 4.30954C483.778 4.36428 483.636 4.39229 483.492 4.39196Z" fill="#3F3D56"/>
<path d="M483.492 8.48816H468.747C468.458 8.48816 468.18 8.37309 467.975 8.16826C467.77 7.96343 467.655 7.68562 467.655 7.39594C467.655 7.10626 467.77 6.82845 467.975 6.62362C468.18 6.41879 468.458 6.30371 468.747 6.30371H483.493C483.782 6.30371 484.06 6.41879 484.265 6.62362C484.47 6.82845 484.585 7.10626 484.585 7.39594C484.585 7.68562 484.47 7.96343 484.265 8.16826C484.06 8.37309 483.782 8.48816 483.492 8.48816Z" fill="#3F3D56"/>
<path d="M483.492 12.5839H468.747C468.458 12.5839 468.18 12.4688 467.975 12.264C467.77 12.0591 467.655 11.7813 467.655 11.4916C467.655 11.202 467.77 10.9241 467.975 10.7193C468.18 10.5145 468.458 10.3994 468.747 10.3994H483.493C483.636 10.3991 483.778 10.4271 483.911 10.4818C484.044 10.5366 484.165 10.617 484.266 10.7184C484.368 10.8199 484.449 10.9404 484.504 11.0731C484.559 11.2058 484.587 11.348 484.587 11.4916C484.587 11.6353 484.559 11.7775 484.504 11.9102C484.449 12.0429 484.368 12.1634 484.266 12.2648C484.165 12.3663 484.044 12.4467 483.911 12.5014C483.778 12.5562 483.636 12.5842 483.492 12.5839Z" fill="#3F3D56"/>
<path d="M484.585 43.7959H405.945V90.9455H484.585V43.7959Z" fill="#01C38E"/>
<path d="M468.895 112.606H422.105C421.521 112.605 420.961 112.373 420.549 111.959C420.136 111.546 419.904 110.986 419.904 110.402C419.904 109.818 420.136 109.258 420.549 108.845C420.961 108.432 421.521 108.199 422.105 108.198H468.895C469.48 108.198 470.04 108.43 470.454 108.844C470.867 109.257 471.099 109.818 471.099 110.402C471.099 110.987 470.867 111.547 470.454 111.961C470.04 112.374 469.48 112.606 468.895 112.606Z" fill="#E4E4E4"/>
<path d="M461.352 105.062H429.649C429.36 105.063 429.073 105.006 428.805 104.895C428.537 104.785 428.294 104.623 428.089 104.418C427.884 104.213 427.721 103.97 427.61 103.702C427.499 103.435 427.442 103.148 427.442 102.858C427.442 102.568 427.499 102.282 427.61 102.014C427.721 101.746 427.884 101.503 428.089 101.299C428.294 101.094 428.537 100.932 428.805 100.821C429.073 100.711 429.36 100.654 429.649 100.654H461.352C461.641 100.654 461.928 100.711 462.196 100.821C462.464 100.932 462.707 101.094 462.912 101.299C463.117 101.503 463.28 101.746 463.391 102.014C463.502 102.282 463.559 102.568 463.559 102.858C463.559 103.148 463.502 103.435 463.391 103.702C463.28 103.97 463.117 104.213 462.912 104.418C462.707 104.623 462.464 104.785 462.196 104.895C461.928 105.006 461.641 105.063 461.352 105.062Z" fill="#E4E4E4"/>
<path d="M484.585 129.535H405.945V176.685H484.585V129.535Z" fill="#F0F0F0"/>
<path d="M468.896 198.346H422.105C421.521 198.346 420.96 198.113 420.547 197.7C420.134 197.287 419.901 196.726 419.901 196.142C419.901 195.557 420.134 194.997 420.547 194.583C420.96 194.17 421.521 193.938 422.105 193.938H468.896C469.48 193.938 470.041 194.17 470.454 194.583C470.868 194.997 471.1 195.557 471.1 196.142C471.1 196.726 470.868 197.287 470.454 197.7C470.041 198.113 469.48 198.346 468.896 198.346Z" fill="#E4E4E4"/>
<path d="M461.352 190.801H429.649C429.065 190.801 428.504 190.569 428.091 190.156C427.678 189.743 427.445 189.182 427.445 188.597C427.445 188.013 427.678 187.452 428.091 187.039C428.504 186.626 429.065 186.394 429.649 186.394H461.352C461.936 186.394 462.497 186.626 462.91 187.039C463.323 187.452 463.555 188.013 463.555 188.597C463.555 189.182 463.323 189.743 462.91 190.156C462.497 190.569 461.936 190.801 461.352 190.801Z" fill="#E4E4E4"/>
<path d="M365.619 76.8541H128.242C127.657 76.8541 127.097 76.6219 126.684 76.2086C126.27 75.7953 126.038 75.2347 126.038 74.6502C126.038 74.0657 126.27 73.5051 126.684 73.0918C127.097 72.6785 127.657 72.4463 128.242 72.4463H365.619C366.203 72.4463 366.764 72.6785 367.177 73.0918C367.59 73.5051 367.823 74.0657 367.823 74.6502C367.823 75.2347 367.59 75.7953 367.177 76.2086C366.764 76.6219 366.203 76.8541 365.619 76.8541Z" fill="#E4E4E4"/>
<path d="M365.619 93.5523H128.242C127.657 93.5523 127.097 93.3201 126.684 92.9068C126.27 92.4935 126.038 91.933 126.038 91.3484C126.038 90.7639 126.27 90.2034 126.684 89.79C127.097 89.3767 127.657 89.1445 128.242 89.1445H365.619C366.203 89.1445 366.764 89.3767 367.177 89.79C367.59 90.2034 367.823 90.7639 367.823 91.3484C367.823 91.933 367.59 92.4935 367.177 92.9068C366.764 93.3201 366.203 93.5523 365.619 93.5523Z" fill="#E4E4E4"/>
<path d="M365.619 110.25H128.242C127.657 110.25 127.097 110.018 126.684 109.604C126.27 109.191 126.038 108.63 126.038 108.046C126.038 107.461 126.27 106.901 126.684 106.488C127.097 106.074 127.657 105.842 128.242 105.842H365.619C366.203 105.842 366.764 106.074 367.177 106.488C367.59 106.901 367.823 107.461 367.823 108.046C367.823 108.63 367.59 109.191 367.177 109.604C366.764 110.018 366.203 110.25 365.619 110.25Z" fill="#E4E4E4"/>
<path d="M365.619 126.948H128.242C127.657 126.948 127.097 126.716 126.684 126.302C126.27 125.889 126.038 125.328 126.038 124.744C126.038 124.159 126.27 123.599 126.684 123.186C127.097 122.772 127.657 122.54 128.242 122.54H365.619C366.203 122.54 366.764 122.772 367.177 123.186C367.59 123.599 367.823 124.159 367.823 124.744C367.823 125.328 367.59 125.889 367.177 126.302C366.764 126.716 366.203 126.948 365.619 126.948Z" fill="#E4E4E4"/>
<path d="M365.619 160.343H128.242C127.657 160.343 127.097 160.111 126.684 159.698C126.27 159.285 126.038 158.724 126.038 158.139C126.038 157.555 126.27 156.994 126.684 156.581C127.097 156.168 127.657 155.936 128.242 155.936H365.619C366.203 155.936 366.764 156.168 367.177 156.581C367.59 156.994 367.823 157.555 367.823 158.139C367.823 158.724 367.59 159.285 367.177 159.698C366.764 160.111 366.203 160.343 365.619 160.343Z" fill="#E4E4E4"/>
<path d="M365.619 177.041H128.242C127.657 177.041 127.097 176.809 126.684 176.396C126.27 175.983 126.038 175.422 126.038 174.837C126.038 174.253 126.27 173.692 126.684 173.279C127.097 172.866 127.657 172.634 128.242 172.634H365.619C366.203 172.634 366.764 172.866 367.177 173.279C367.59 173.692 367.823 174.253 367.823 174.837C367.823 175.422 367.59 175.983 367.177 176.396C366.764 176.809 366.203 177.041 365.619 177.041Z" fill="#E4E4E4"/>
<path d="M326.407 60.0978H167.455C167.165 60.0982 166.878 60.0416 166.611 59.931C166.343 59.8205 166.099 59.6582 165.894 59.4535C165.689 59.2488 165.527 59.0057 165.416 58.7381C165.305 58.4705 165.248 58.1836 165.248 57.8939C165.248 57.6041 165.305 57.3173 165.416 57.0496C165.527 56.782 165.689 56.5389 165.894 56.3342C166.099 56.1295 166.343 55.9672 166.611 55.8567C166.878 55.7461 167.165 55.6895 167.455 55.6899H326.407C326.696 55.6895 326.983 55.7461 327.251 55.8567C327.519 55.9672 327.762 56.1295 327.967 56.3342C328.172 56.5389 328.335 56.782 328.446 57.0496C328.557 57.3173 328.614 57.6041 328.614 57.8939C328.614 58.1836 328.557 58.4705 328.446 58.7381C328.335 59.0057 328.172 59.2488 327.967 59.4535C327.762 59.6582 327.519 59.8205 327.251 59.931C326.983 60.0416 326.696 60.0982 326.407 60.0978Z" fill="#E4E4E4"/>
<path d="M387.312 267.187H391.901L394.085 249.485L387.312 249.486L387.312 267.187Z" fill="#FFB6B6"/>
<path d="M386.141 265.689L395.179 265.689C396.706 265.689 398.171 266.296 399.252 267.376C400.332 268.456 400.939 269.921 400.939 271.448V271.636L386.141 271.636L386.141 265.689Z" fill="#2F2E41"/>
<path d="M363.855 267.187H368.444L370.628 249.485L363.854 249.486L363.855 267.187Z" fill="#FFB6B6"/>
<path d="M362.685 265.689L371.723 265.689C373.25 265.689 374.715 266.296 375.796 267.376C376.876 268.456 377.483 269.921 377.483 271.448V271.636L362.685 271.636L362.685 265.689Z" fill="#2F2E41"/>
<path d="M417.446 69.9287C417.446 69.1584 417.276 68.3976 416.947 67.7011C416.618 67.0045 416.139 66.3895 415.544 65.9003C414.949 65.411 414.253 65.0598 413.506 64.8717C412.759 64.6836 411.98 64.6634 411.224 64.8125C410.468 64.9616 409.755 65.2764 409.136 65.7341C408.516 66.1918 408.006 66.7812 407.641 67.4598C407.277 68.1383 407.067 68.8892 407.028 69.6585C406.988 70.4277 407.119 71.1962 407.412 71.9086L396.866 88.5947L390.3 101.826L395.718 106.635L399.888 102.246L413.524 74.9736C414.645 74.6876 415.639 74.0365 416.349 73.123C417.059 72.2095 417.445 71.0857 417.446 69.9287Z" fill="#FFB6B6"/>
<path d="M362.713 124.661L352.375 123.059L349.913 141.761L336.495 170.634C335.62 171.179 334.926 171.972 334.502 172.912C334.077 173.851 333.94 174.896 334.109 175.913C334.278 176.931 334.744 177.875 335.45 178.627C336.155 179.379 337.068 179.906 338.072 180.139C339.076 180.373 340.128 180.304 341.093 179.94C342.058 179.577 342.893 178.935 343.494 178.097C344.094 177.258 344.433 176.261 344.466 175.23C344.5 174.199 344.227 173.182 343.683 172.306L357.711 146.974L362.713 124.661Z" fill="#FFB6B6"/>
<path d="M368.442 155.817C368.442 155.817 359.351 164.224 360.506 185.361L363.053 218.015L362.411 263.533L371.748 262.8L379.906 186.517L387.724 217.792L384.918 259.455L393.912 259.664L403.362 212.58L401.122 177.678L397.36 155.817H368.442Z" fill="#2F2E41"/>
<path d="M378.168 106.59L356.449 112.672L367.493 145.76L365.842 158.417L399.33 158.634L391.574 134.169C391.574 134.169 395.927 125.219 390.957 118.945L378.168 106.59Z" fill="#01C38E"/>
<path d="M375.562 111.803L378.168 106.59C378.168 106.59 378.084 105.281 384.207 104.632L391.392 97.4912L397.968 104.046L386.855 120.491L375.562 111.803Z" fill="#01C38E"/>
<path d="M365.137 117.015C365.137 117.015 357.318 108.328 352.974 112.672C348.63 117.015 350.857 130.828 350.857 130.828L364.387 132.927L365.137 117.015Z" fill="#01C38E"/>
<path d="M369.102 83.6206C382.418 83.6804 382.417 103.927 369.102 103.984C355.786 103.925 355.788 83.6785 369.102 83.6206Z" fill="#FFB6B6"/>
<path d="M370.585 93.1298C372.385 94.1898 374.255 95.2739 376.331 95.5012C378.408 95.7285 380.759 94.8545 381.592 92.9391C381.852 92.2754 381.99 91.57 382 90.8571C382.183 87.2192 380.924 83.6558 378.496 80.9399C377.278 79.6087 375.787 78.5558 374.125 77.8531C372.463 77.1503 370.669 76.8143 368.865 76.8678C365.425 77.0174 362.245 78.6461 359.192 80.2394C356.385 81.7046 353.42 83.3192 351.895 86.0945C349.634 90.2071 351.282 95.2422 351.721 99.9145C352.029 103.398 351.632 106.909 350.554 110.236C349.475 113.563 347.738 116.639 345.444 119.279L364.39 121.074C366.696 121.293 369.047 121.509 371.307 121.004C373.257 120.568 375.052 119.613 376.502 118.238C377.953 116.864 379.003 115.122 379.542 113.198C380.082 111.275 380.09 109.241 379.565 107.313C379.041 105.385 378.004 103.635 376.565 102.249C373.876 99.6601 369.551 97.8272 369.445 94.0958" fill="#2F2E41"/>
<path d="M511.776 266.764H506.75L504.358 247.376H511.777L511.776 266.764Z" fill="#9F616A"/>
<path d="M513.058 271.636L496.851 271.636V271.431C496.851 269.758 497.515 268.153 498.698 266.97C499.881 265.787 501.486 265.122 503.159 265.122L513.058 265.123L513.058 271.636Z" fill="#2F2E41"/>
<path d="M558.516 266.764H553.489L551.098 247.376H558.517L558.516 266.764Z" fill="#9F616A"/>
<path d="M559.798 271.636L543.59 271.636V271.431C543.59 269.758 544.255 268.153 545.438 266.97C546.621 265.787 548.226 265.122 549.899 265.122L559.798 265.123L559.798 271.636Z" fill="#2F2E41"/>
<path d="M509.773 168.375C509.773 168.375 505.554 179.827 506.157 184.649C506.759 189.47 501.937 223.223 502.54 226.237C503.143 229.25 501.937 244.319 502.54 246.729C503.143 249.14 500.849 252.02 502.054 254.431C503.259 256.842 504.951 261.798 504.951 261.798L512.787 261.195L513.992 254.565C513.992 254.565 517.608 253.962 517.006 250.346C516.403 246.729 520.019 222.62 520.019 222.62L530.266 188.868L544.731 219.607C544.731 219.607 545.334 241.305 547.142 243.716C548.95 246.127 545.334 252.757 547.142 255.168C548.95 257.578 550.758 261.798 550.758 261.798H559.799V256.976C559.799 256.976 565.224 253.962 559.799 244.921L556.134 190.627L552.517 165.915L509.773 168.375Z" fill="#2F2E41"/>
<path d="M532.241 92.5881C538.459 92.5881 543.499 87.548 543.499 81.3307C543.499 75.1134 538.459 70.0732 532.241 70.0732C526.024 70.0732 520.984 75.1134 520.984 81.3307C520.984 87.548 526.024 92.5881 532.241 92.5881Z" fill="#A0616A"/>
<path d="M522.661 80.554C523.456 82.5836 524.25 84.6131 525.044 86.6426C526.021 89.1377 527.139 91.807 529.428 93.1995C532.255 94.9187 536.029 94.0804 538.763 92.2181C541.222 90.5431 543.109 88.1557 544.172 85.3766C545.235 82.5976 545.421 79.5599 544.707 76.6716C543.993 73.7833 542.412 71.1828 540.176 69.2193C537.941 67.2558 535.158 66.0234 532.202 65.6876L532.089 67.7255L529.588 65.6294C529.403 65.9467 529.149 66.218 528.844 66.4229C528.539 66.6278 528.192 66.761 527.828 66.8124C527.464 66.8639 527.094 66.8322 526.744 66.7199C526.394 66.6076 526.075 66.4174 525.809 66.1638C526.466 67.5255 525.708 69.1861 524.613 70.2292C523.268 71.5106 519.421 73.0506 519.581 75.3413C519.687 76.8699 522.041 78.9699 522.661 80.554Z" fill="#2F2E41"/>
<path d="M563.229 185.028C563.617 184.449 563.874 183.792 563.98 183.103C564.087 182.415 564.041 181.711 563.846 181.042C563.652 180.373 563.313 179.755 562.853 179.231C562.393 178.707 561.825 178.29 561.187 178.01L561.412 167.119L554.827 165.369L554.725 180.752C554.325 181.855 554.344 183.067 554.778 184.157C555.212 185.247 556.03 186.14 557.078 186.667C558.127 187.194 559.332 187.318 560.465 187.016C561.599 186.714 562.582 186.007 563.229 185.028Z" fill="#9F616A"/>
<path d="M540.604 99.5456C540.604 99.5456 531.88 95.1837 523.641 98.0916C515.402 100.999 511.041 104.392 511.041 104.392L516.372 132.501L509.102 170.304C509.102 170.304 546.42 167.396 549.812 170.304C553.205 173.212 553.205 166.911 553.205 166.911L550.297 131.048L555.628 108.269L540.604 99.5456Z" fill="#3F3D56"/>
<path d="M503.785 185.672C504.32 185.226 504.75 184.667 505.046 184.036C505.341 183.405 505.495 182.717 505.496 182.02C505.497 181.323 505.345 180.635 505.051 180.003C504.757 179.371 504.328 178.811 503.795 178.363L507.068 167.974L501.24 164.445L496.823 179.181C496.13 180.128 495.808 181.296 495.918 182.464C496.028 183.632 496.563 184.719 497.421 185.519C498.279 186.319 499.401 186.777 500.574 186.805C501.746 186.833 502.889 186.43 503.785 185.672Z" fill="#9F616A"/>
<path d="M514.433 104.392H511.04C511.04 104.392 505.709 107.785 505.709 112.631C505.709 117.477 497.955 174.181 497.955 174.181L506.194 175.635L513.464 135.894L518.795 125.232L514.433 104.392Z" fill="#3F3D56"/>
<path d="M546.42 108.269H555.628C555.628 108.269 558.536 111.177 559.99 117.962C561.444 124.747 562.898 151.403 562.898 151.403L561.929 175.635H554.659L553.69 144.133L548.843 123.778L546.42 108.269Z" fill="#3F3D56"/>
<path d="M119.581 140.521C119.348 140.634 119.125 140.765 118.913 140.912L97.3548 132.485L96.5003 126.927L87.9438 127.121L88.5004 137.107C88.5454 137.914 88.8509 138.684 89.3709 139.302C89.891 139.921 90.5976 140.354 91.3847 140.536L117.038 146.487C117.351 147.432 117.944 148.258 118.739 148.857C119.533 149.456 120.491 149.799 121.485 149.84C122.479 149.881 123.462 149.618 124.304 149.087C125.145 148.556 125.804 147.781 126.195 146.866C126.585 145.95 126.687 144.938 126.488 143.963C126.289 142.989 125.797 142.098 125.079 141.409C124.361 140.72 123.451 140.266 122.468 140.108C121.486 139.949 120.479 140.093 119.581 140.521Z" fill="#9F616A"/>
<path d="M87.2116 266.089L92.9338 266.089L95.6555 244.018H87.2104L87.2116 266.089Z" fill="#9F616A"/>
<path d="M85.752 264.221L97.0209 264.22C98.9254 264.221 100.752 264.977 102.099 266.324C103.446 267.671 104.203 269.497 104.203 271.402V271.635L85.7523 271.636L85.752 264.221Z" fill="#2F2E41"/>
<path d="M59.6739 266.089L65.3961 266.089L68.1184 244.018H59.6733L59.6739 266.089Z" fill="#9F616A"/>
<path d="M58.2148 264.221L69.4837 264.22C71.3883 264.221 73.2153 264.977 74.5621 266.324C75.9088 267.671 76.6655 269.497 76.6656 271.402V271.635L58.2152 271.636L58.2148 264.221Z" fill="#2F2E41"/>
<path d="M62.9919 97.8153C61.3623 91.0867 59.9817 83.4975 63.055 77.3004C65.1874 73.0005 73.0761 71.5525 77.5982 73.1016C82.1203 74.6506 85.3898 78.8534 86.8277 83.4357C88.2656 88.0181 88.0985 92.9559 87.4718 97.7195C79.1551 97.5598 70.8383 97.4 62.9919 97.8153Z" fill="#2F2E41"/>
<path d="M77.0273 97.8135C82.3835 97.8135 86.7256 93.4714 86.7256 88.1152C86.7256 82.759 82.3835 78.417 77.0273 78.417C71.6712 78.417 67.3291 82.759 67.3291 88.1152C67.3291 93.4714 71.6712 97.8135 77.0273 97.8135Z" fill="#9F616A"/>
<path d="M65.1711 86.117C65.1403 84.4848 65.4379 82.863 66.0462 81.348C66.6545 79.833 67.5611 78.4557 68.7122 77.298C69.8633 76.1403 71.2353 75.2259 72.7468 74.6089C74.2583 73.9919 75.8784 73.6851 77.5108 73.7066C79.1432 73.7281 80.7547 74.0776 82.2494 74.7342C83.7441 75.3908 85.0916 76.3411 86.2117 77.5287C87.3319 78.7164 88.2019 80.117 88.7701 81.6475C89.3382 83.178 89.593 84.8071 89.5191 86.438C81.2181 86.4556 72.9172 86.4732 65.1711 86.117Z" fill="#2F2E41"/>
<path d="M68.9785 133.593L64.9225 140.353C64.9225 140.353 53.8147 161.186 54.4753 178.455L56.9335 199.964L54.2358 205.242L56.0415 214.529L52.688 221.181L58.7502 253.298L59.0081 260.263H68.8107L68.2948 253.169L72.4223 221.881L79.3873 188.474L82.9988 217.312L81.709 224.535L83.3858 230.597L85.7074 249.299L85.9654 258.328L94.8652 259.36L98.2187 225.954L100.153 210.015L89.7848 139.342L68.9785 133.593Z" fill="#2F2E41"/>
<path d="M67.6915 100.953L61.6531 103.517L58.2617 117.553L65.4024 135.84L62.7329 144.977C70.8135 158.8 80.8153 160.808 92.5847 151.944C90.0937 144.95 90.4536 137.759 92.9359 130.421C92.9359 130.421 99.1272 124.656 94.8022 117.16L90.6767 105.962L85.5688 103.409L67.6915 100.953Z" fill="#CBCBCB"/>
<path d="M89.4873 108.404L90.8581 105.858C90.8581 105.858 94.4732 106.402 95.9496 110.754C97.426 115.106 97.81 132.686 97.81 132.686L90.0748 133.078L89.4873 108.404Z" fill="#CBCBCB"/>
<path d="M278.348 108.198L48.4826 167.438C47.9175 167.582 47.3185 167.495 46.817 167.198C46.3154 166.901 45.9521 166.417 45.8066 165.852C45.661 165.287 45.7452 164.688 46.0406 164.185C46.336 163.683 46.8185 163.318 47.3826 163.17L277.248 103.929C277.529 103.856 277.821 103.839 278.108 103.879C278.396 103.919 278.672 104.015 278.922 104.162C279.172 104.309 279.39 104.504 279.565 104.736C279.739 104.967 279.867 105.231 279.939 105.512C280.011 105.793 280.028 106.085 279.987 106.372C279.946 106.659 279.849 106.935 279.701 107.185C279.553 107.434 279.358 107.652 279.126 107.826C278.893 108 278.629 108.126 278.348 108.198Z" fill="#01C38E"/>
<path d="M59.1845 168.074C59.8407 167.747 60.4174 167.281 60.8738 166.707C61.3303 166.134 61.6555 165.467 61.8264 164.754C61.9973 164.041 62.0099 163.3 61.8632 162.582C61.7166 161.863 61.4142 161.186 60.9775 160.597L64.7267 123.94H56.6242L53.6445 159.734C52.7042 160.533 52.0897 161.65 51.9175 162.872C51.7453 164.094 52.0274 165.337 52.7102 166.365C53.3931 167.393 54.4293 168.134 55.6226 168.449C56.8158 168.764 58.0832 168.631 59.1845 168.074Z" fill="#9F616A"/>
<path d="M66.5879 107.663L63.7484 103.649C63.7484 103.649 58.7548 100.263 56.209 108.055C53.6632 115.847 54.0549 130.281 54.0549 130.281L63.7484 134.296L66.5879 107.663Z" fill="#CBCBCB"/>
<path d="M262.451 271.69H43.0758C42.9231 271.69 42.7766 271.63 42.6686 271.522C42.5607 271.414 42.5 271.267 42.5 271.114C42.5 270.962 42.5607 270.815 42.6686 270.707C42.7766 270.599 42.9231 270.539 43.0758 270.539H262.451C262.604 270.539 262.75 270.599 262.858 270.707C262.966 270.815 263.027 270.962 263.027 271.114C263.027 271.267 262.966 271.414 262.858 271.522C262.75 271.63 262.604 271.69 262.451 271.69Z" fill="#CACACA"/>
<path d="M565.424 272H346.049C345.896 272 345.75 271.94 345.642 271.832C345.534 271.724 345.473 271.577 345.473 271.424C345.473 271.272 345.534 271.125 345.642 271.017C345.75 270.909 345.896 270.849 346.049 270.849H565.424C565.577 270.849 565.724 270.909 565.832 271.017C565.939 271.125 566 271.272 566 271.424C566 271.577 565.939 271.724 565.832 271.832C565.724 271.94 565.577 272 565.424 272Z" fill="#CACACA"/>
</g>
<defs>
<clipPath id="clip0_50_3855">
<rect width="566" height="271.282" fill="white" transform="translate(0 0.717773)"/>
</clipPath>
</defs>
</svg>