<svg width="406" height="612" viewBox="0 0 406 612" fill="none" xmlns="http://www.w3.org/2000/svg">
<g clip-path="url(#clip0_72_4297)">
<path d="M85.0898 492.28C85.3998 492.63 85.7098 492.99 86.0098 493.35C90.2005 498.213 93.9865 503.41 97.3298 508.89C97.5998 509.31 97.8598 509.74 98.0998 510.16C106.015 523.4 111.402 537.994 113.99 553.2C114.57 556.64 115.006 560.1 115.3 563.58C115.51 566.26 115.636 568.943 115.68 571.63C115.84 582.91 114.84 595.46 122.11 604.08C124.053 606.348 126.425 608.211 129.09 609.56C131.097 610.599 133.218 611.401 135.41 611.95H158.08C159.22 611.78 160.36 611.6 161.5 611.42C161.53 611.42 161.56 611.41 161.59 611.41L161.82 611.49L163.19 611.95L163.25 611.97V611.95C163.248 611.91 163.252 611.869 163.26 611.83C163.258 611.757 163.261 611.683 163.27 611.61V611.6C163.28 611.4 163.29 611.21 163.29 611.01L163.32 610.48C163.32 610.48 163.33 610.47 163.32 610.47C163.33 610.17 163.35 609.87 163.36 609.56C164.41 583.46 161.85 556.49 149.53 533.51C145.305 525.636 139.865 518.478 133.41 512.3C133.372 512.261 133.332 512.224 133.29 512.19C120.48 499.97 103.92 491.98 86.4397 492.25C85.9898 492.25 85.5398 492.26 85.0898 492.28Z" fill="#F0F0F0"/>
<path d="M85.0391 492.845C104.836 503.004 120.929 519.144 131.032 538.97C133.282 543.2 134.852 547.758 135.684 552.476C136.345 557.099 135.756 561.814 133.979 566.132C132.403 570.191 130.32 574.161 129.758 578.533C129.503 580.776 129.726 583.046 130.41 585.197C131.095 587.347 132.226 589.328 133.73 591.01C137.369 595.3 142.332 598.026 147.277 600.523C152.769 603.296 158.516 606.089 162.329 611.102C162.791 611.709 163.706 610.957 163.245 610.35C156.612 601.629 144.929 599.726 136.973 592.635C133.261 589.326 130.523 584.878 130.832 579.755C131.102 575.275 133.246 571.18 134.878 567.083C136.673 562.896 137.416 558.333 137.042 553.793C136.454 549.047 135.062 544.436 132.927 540.158C128.273 530.449 122.122 521.531 114.698 513.733C106.275 504.786 96.383 497.345 85.4508 491.734C84.774 491.387 84.3667 492.5 85.0391 492.845Z" fill="white"/>
<path d="M128.155 532.395C131.251 530.248 133.483 527.071 134.453 523.43C135.423 519.789 135.068 515.923 133.45 512.52C133.12 511.833 132.036 512.313 132.367 513.001C133.879 516.167 134.21 519.769 133.3 523.157C132.39 526.545 130.298 529.497 127.403 531.478C126.774 531.91 127.529 532.824 128.155 532.395Z" fill="white"/>
<path d="M135.049 564.179C127.459 562.874 120.639 558.756 115.95 552.646C115.486 552.04 114.57 552.792 115.034 553.397C119.925 559.746 127.031 564.017 134.933 565.358C135.686 565.485 135.798 564.305 135.049 564.179Z" fill="white"/>
<path d="M105.653 506.228C104.628 507.309 103.351 508.117 101.936 508.582C100.521 509.046 99.0131 509.152 97.5473 508.89C96.796 508.753 96.6844 509.933 97.4308 510.069C99.0517 510.351 100.717 510.232 102.281 509.723C103.845 509.213 105.261 508.328 106.404 507.144C106.521 507.042 106.595 506.899 106.61 506.744C106.626 506.589 106.581 506.434 106.487 506.311C106.386 506.19 106.243 506.114 106.087 506.098C105.931 506.083 105.775 506.129 105.653 506.228Z" fill="white"/>
<path d="M29.88 564.64C30.34 564.74 30.8 564.84 31.27 564.95H31.28C37.547 566.312 43.6936 568.178 49.66 570.53C50.12 570.71 50.58 570.89 51.0399 571.08H51.0499C65.2729 576.871 78.3047 585.238 89.4899 595.76C89.5299 595.8 89.5699 595.83 89.6099 595.87C89.634 595.899 89.6608 595.926 89.6899 595.95L89.7399 596C94.1781 600.204 98.2931 604.737 102.05 609.56C102.05 609.57 102.06 609.58 102.07 609.59C102.67 610.37 103.28 611.15 103.88 611.95H163.19L163.25 611.97V611.95H163.5C163.5 611.94 163.49 611.93 163.48 611.92C163.48 611.91 163.47 611.91 163.47 611.9C163.4 611.8 163.33 611.7 163.27 611.61V611.6C163.255 611.57 163.235 611.543 163.21 611.52C163.15 611.42 163.08 611.34 163.03 611.25C162.63 610.69 162.24 610.12 161.84 609.56C161.19 608.63 160.53 607.7 159.86 606.78L159.859 606.776L159.857 606.773L159.854 606.771L159.85 606.77V606.76C159.84 606.75 159.84 606.74 159.83 606.73L159.81 606.71C151.56 595.29 142.28 584.45 131.65 575.37C131.33 575.09 131.01 574.81 130.67 574.55C125.857 570.478 120.716 566.808 115.3 563.58C112.34 561.83 109.29 560.223 106.15 558.76C98.0509 555.028 89.4155 552.591 80.56 551.54H80.54C80.52 551.54 80.5 551.53 80.47 551.53C80.44 551.53 80.4201 551.52 80.4001 551.52C62.79 549.48 44.7401 553.07 30.9301 563.81C30.57 564.09 30.23 564.36 29.88 564.64Z" fill="#F0F0F0"/>
<path d="M163.5 611.95H163.25V611.97L163.19 611.95H147.32C152.05 611.14 156.77 610.51 161.5 611.42C161.61 611.44 161.71 611.46 161.82 611.49C162.3 611.58 162.78 611.7 163.26 611.83C163.29 611.84 163.33 611.85 163.36 611.86C163.403 611.872 163.444 611.892 163.48 611.92C163.505 611.924 163.529 611.934 163.55 611.95H163.5Z" fill="white"/>
<path d="M30.1696 565.13C30.5396 565.07 30.8997 565 31.2697 564.95H31.2797C38.9952 563.692 46.8266 563.296 54.6296 563.77C55.0196 563.79 55.4196 563.82 55.8196 563.84C66.6507 564.595 77.2998 567.021 87.3896 571.03C87.3996 571.03 87.3997 571.03 87.3997 571.04C87.5097 571.08 87.6197 571.12 87.7197 571.16C90.0697 572.11 92.3897 573.15 94.6597 574.27C99.0035 576.293 103.002 578.985 106.51 582.25C109.317 585.022 111.443 588.407 112.72 592.14C112.85 592.52 112.98 592.89 113.1 593.27C113.19 593.57 113.28 593.88 113.37 594.18C114.55 598.37 115.28 602.79 117.46 606.62C118.067 607.689 118.806 608.676 119.66 609.56C120.542 610.478 121.536 611.281 122.62 611.95H125.14C123.76 611.354 122.482 610.548 121.35 609.56C120.469 608.801 119.698 607.922 119.06 606.95C116.58 603.21 115.82 598.65 114.66 594.4C114.47 593.71 114.27 593.04 114.05 592.37C112.895 588.703 110.961 585.329 108.38 582.48C105.054 579.046 101.169 576.202 96.8896 574.07C94.1896 572.65 91.4162 571.364 88.5696 570.21C88.1996 570.05 87.8296 569.91 87.4596 569.77C69.4856 562.775 49.9671 560.717 30.9296 563.81C30.5596 563.86 30.1996 563.93 29.8296 563.99C29.0796 564.12 29.4196 565.26 30.1696 565.13Z" fill="white"/>
<path d="M88.4047 570.748C89.5845 567.169 89.4541 563.288 88.0366 559.798C86.6192 556.307 84.007 553.433 80.6666 551.691C79.9895 551.34 79.4134 552.376 80.0914 552.727C83.2049 554.344 85.6379 557.021 86.9512 560.274C88.2645 563.527 88.3715 567.143 87.2531 570.468C87.0109 571.191 88.1639 571.466 88.4047 570.748Z" fill="white"/>
<path d="M113.046 591.974C106.2 595.502 98.2751 596.32 90.8526 594.265C90.1173 594.061 89.8391 595.213 90.5735 595.417C98.3016 597.541 106.546 596.673 113.663 592.986C114.341 592.634 113.72 591.624 113.046 591.974Z" fill="white"/>
<path d="M54.6842 563.403C54.5161 564.882 53.9833 566.297 53.1334 567.52C52.2835 568.742 51.1432 569.735 49.8149 570.408C49.1327 570.751 49.7541 571.761 50.4318 571.42C51.8958 570.669 53.1539 569.571 54.0959 568.223C55.0378 566.874 55.6352 565.315 55.8357 563.682C55.8675 563.529 55.8401 563.371 55.7591 563.238C55.678 563.105 55.5495 563.008 55.3995 562.967C55.2468 562.93 55.0861 562.956 54.9521 563.037C54.8182 563.119 54.7219 563.25 54.6842 563.403Z" fill="white"/>
<path d="M88.8798 166.29C88.6098 133.18 87.2631 99.75 84.8398 66C84.7998 65.33 84.7498 64.67 84.6998 64C83.4198 46.43 81.8531 28.7967 79.9998 11.1V11C80.0015 8.08315 81.161 5.28628 83.2235 3.22375C85.286 1.16123 88.0829 0.00174059 90.9998 0H386C388.907 0.00571161 391.694 1.15962 393.754 3.21048C395.814 5.26134 396.981 8.04307 397 10.95C399.56 35.32 401.566 59.57 403.02 83.7C403.08 84.49 403.12 85.27 403.16 86.06C403.88 97.99 404.453 109.89 404.88 121.76C404.91 122.46 404.94 123.16 404.95 123.86C407.68 196.69 405.023 269.622 397 342.06C396.979 344.965 395.811 347.745 393.751 349.794C391.691 351.842 388.905 352.995 386 353H90.9998C88.0829 352.998 85.286 351.839 83.2235 349.776C81.161 347.714 80.0015 344.917 79.9998 342V341.89C81.4498 329.02 82.7231 316.067 83.8198 303.03C83.9798 301.12 84.1364 299.21 84.2897 297.3C85.0497 287.91 85.7131 278.483 86.2798 269.02C86.3998 267.11 86.5097 265.2 86.6097 263.29C87.6797 244.35 88.3798 225.263 88.7098 206.03C88.7498 204.12 88.7798 202.22 88.8098 200.3C88.9297 190.91 88.9664 181.483 88.9197 172.02C88.9197 170.11 88.9098 168.2 88.8798 166.29Z" fill="#F0F0F0"/>
<path d="M-0.000366211 75C0.00137329 72.0832 1.16086 69.2863 3.22339 67.2238C5.28592 65.1612 8.08279 64.0017 10.9996 64H306C308.907 64.0057 311.694 65.1596 313.754 67.2105C315.814 69.2613 316.981 72.0431 317 74.95C326.96 169.92 328.61 263.21 321.94 353C321.13 364.11 320.183 375.163 319.1 386.16C318.52 392.05 317.903 397.923 317.25 403.78C317.17 404.54 317.09 405.3 317 406.06C316.979 408.965 315.811 411.745 313.751 413.794C311.691 415.842 308.905 416.995 306 417H10.9996C8.08279 416.998 5.28592 415.839 3.22339 413.776C1.16086 411.714 0.00137329 408.917 -0.000366211 406V405.89C11.9296 300.12 11.9296 188.83 -0.000366211 75.1V75Z" fill="white"/>
<path d="M-0.000366211 75C0.00137329 72.0832 1.16086 69.2863 3.22339 67.2238C5.28592 65.1612 8.08279 64.0017 10.9996 64H306C308.907 64.0057 311.694 65.1596 313.754 67.2105C315.814 69.2613 316.981 72.0431 317 74.95C326.96 169.92 328.61 263.21 321.94 353C321.13 364.11 320.183 375.163 319.1 386.16C318.52 392.05 317.903 397.923 317.25 403.78C317.17 404.54 317.09 405.3 317 406.06C316.979 408.965 315.811 411.745 313.751 413.794C311.691 415.842 308.905 416.995 306 417H10.9996C8.08279 416.998 5.28592 415.839 3.22339 413.776C1.16086 411.714 0.00137329 408.917 -0.000366211 406V405.89C11.9296 300.12 11.9296 188.83 -0.000366211 75.1V75ZM1.99963 406.06C2.01743 408.436 2.97324 410.709 4.65894 412.383C6.34464 414.057 8.62366 414.998 10.9996 415H306C308.385 414.996 310.673 414.047 312.36 412.36C314.047 410.673 314.996 408.386 315 406V405.89C315.07 405.25 315.14 404.6 315.21 403.96C315.9 397.84 316.543 391.703 317.14 385.55C318.19 374.76 319.12 363.91 319.93 353C326.6 263.26 324.96 170.03 315 75.1V75C314.996 72.6142 314.047 70.327 312.36 68.64C310.673 66.9529 308.385 66.0036 306 66H10.9996C8.62158 66.0008 6.34039 66.9424 4.65417 68.6192C2.96796 70.2961 2.01364 72.572 1.99963 74.95C13.9296 188.77 13.9296 300.18 1.99963 406.06Z" fill="#E4E4E4"/>
<path d="M285.666 166.29C286.425 166.292 287.152 166.595 287.688 167.132C288.223 167.67 288.524 168.398 288.524 169.157C288.524 169.916 288.223 170.643 287.688 171.181C287.152 171.718 286.425 172.021 285.666 172.023H45.9345C45.1756 172.021 44.4485 171.718 43.9126 171.181C43.3767 170.643 43.0757 169.916 43.0757 169.157C43.0757 168.398 43.3767 167.67 43.9126 167.132C44.4485 166.595 45.1756 166.292 45.9345 166.29H285.666Z" fill="#E6E6E6"/>
<path d="M285.666 183.49C286.425 183.491 287.153 183.794 287.689 184.331C288.226 184.869 288.527 185.597 288.527 186.356C288.527 187.116 288.226 187.844 287.689 188.381C287.153 188.919 286.425 189.221 285.666 189.223H122.921C122.162 189.221 121.434 188.919 120.898 188.381C120.361 187.844 120.06 187.116 120.06 186.356C120.06 185.597 120.361 184.869 120.898 184.331C121.434 183.794 122.162 183.491 122.921 183.49H285.666Z" fill="#E6E6E6"/>
<path d="M285.666 200.301C286.425 200.302 287.153 200.605 287.689 201.142C288.226 201.679 288.527 202.408 288.527 203.167C288.527 203.926 288.226 204.654 287.689 205.192C287.153 205.729 286.425 206.032 285.666 206.033H45.9347C45.1754 206.032 44.4477 205.729 43.9113 205.192C43.3749 204.654 43.0737 203.926 43.0737 203.167C43.0737 202.408 43.3749 201.679 43.9113 201.142C44.4477 200.605 45.1754 200.302 45.9347 200.301H285.666Z" fill="#E6E6E6"/>
<path d="M285.666 217.5C286.425 217.502 287.152 217.805 287.688 218.342C288.223 218.88 288.524 219.608 288.524 220.367C288.524 221.125 288.223 221.853 287.688 222.391C287.152 222.928 286.425 223.231 285.666 223.233H122.921C122.162 223.231 121.435 222.928 120.899 222.391C120.363 221.853 120.062 221.125 120.062 220.367C120.062 219.608 120.363 218.88 120.899 218.342C121.435 217.805 122.162 217.502 122.921 217.5H285.666Z" fill="#E6E6E6"/>
<path d="M285.666 263.29C286.425 263.292 287.152 263.595 287.688 264.132C288.223 264.67 288.524 265.398 288.524 266.157C288.524 266.916 288.223 267.643 287.688 268.181C287.152 268.718 286.425 269.021 285.666 269.023H45.9345C45.1756 269.021 44.4485 268.718 43.9126 268.181C43.3767 267.643 43.0757 266.916 43.0757 266.157C43.0757 265.398 43.3767 264.67 43.9126 264.132C44.4485 263.595 45.1756 263.292 45.9345 263.29H285.666Z" fill="#E6E6E6"/>
<path d="M285.666 280.49C286.425 280.491 287.153 280.794 287.689 281.331C288.226 281.869 288.527 282.597 288.527 283.356C288.527 284.116 288.226 284.844 287.689 285.381C287.153 285.919 286.425 286.221 285.666 286.223H122.921C122.162 286.221 121.434 285.919 120.898 285.381C120.361 284.844 120.06 284.116 120.06 283.356C120.06 282.597 120.361 281.869 120.898 281.331C121.434 280.794 122.162 280.491 122.921 280.49H285.666Z" fill="#E6E6E6"/>
<path d="M285.666 297.301C286.425 297.302 287.153 297.605 287.689 298.142C288.226 298.679 288.527 299.408 288.527 300.167C288.527 300.926 288.226 301.654 287.689 302.192C287.153 302.729 286.425 303.032 285.666 303.033H45.9347C45.1754 303.032 44.4477 302.729 43.9113 302.192C43.3749 301.654 43.0737 300.926 43.0737 300.167C43.0737 299.408 43.3749 298.679 43.9113 298.142C44.4477 297.605 45.1754 297.302 45.9347 297.301H285.666Z" fill="#E6E6E6"/>
<path d="M285.666 314.5C286.425 314.502 287.152 314.805 287.688 315.342C288.223 315.88 288.524 316.608 288.524 317.367C288.524 318.125 288.223 318.853 287.688 319.391C287.152 319.928 286.425 320.231 285.666 320.233H122.921C122.162 320.231 121.435 319.928 120.899 319.391C120.363 318.853 120.062 318.125 120.062 317.367C120.062 316.608 120.363 315.88 120.899 315.342C121.435 314.805 122.162 314.502 122.921 314.5H285.666Z" fill="#E6E6E6"/>
<path d="M238.232 130.7H284.02C284.613 130.699 285.182 130.463 285.601 130.044C286.02 129.625 286.256 129.056 286.257 128.463V121.127C286.256 120.534 286.02 119.965 285.601 119.546C285.182 119.127 284.613 118.891 284.02 118.89H238.232C237.639 118.891 237.07 119.127 236.651 119.546C236.232 119.965 235.996 120.534 235.995 121.127V128.463C235.996 129.056 236.232 129.625 236.651 130.044C237.07 130.463 237.639 130.699 238.232 130.7Z" fill="#01C38E"/>
<path d="M79.1641 366.677L93.1892 371.312C95.5267 372.084 97.8642 372.856 100.202 373.629C102.367 374.342 104.709 375.19 107.027 374.883C108.629 374.671 110.454 373.749 110.953 372.101C111.426 370.542 110.425 368.911 109.212 367.989C105.865 365.442 101.633 368.034 99.262 370.671C96.3612 373.896 94.7197 378.059 91.9993 381.435C89.5774 384.462 86.507 386.908 83.0145 388.591C76.0734 391.868 67.6069 391.52 61.4157 386.744C54.0229 381.041 53.2688 371.157 53.2295 362.534C53.243 362.145 53.4069 361.777 53.6867 361.506C53.9665 361.236 54.3404 361.085 54.7295 361.085C55.1185 361.085 55.4924 361.236 55.7722 361.506C56.052 361.777 56.216 362.145 56.2295 362.534C56.2651 370.349 56.7096 379.929 63.8354 384.82C70.6615 389.504 79.6326 388.262 85.917 383.27C89.419 380.489 91.5733 376.862 93.8727 373.107C96.1172 369.441 98.9041 365.887 103.128 364.461C104.939 363.803 106.922 363.79 108.742 364.425C110.562 365.061 112.106 366.305 113.114 367.948C113.574 368.723 113.865 369.587 113.965 370.483C114.065 371.379 113.974 372.286 113.696 373.144C113.418 374.002 112.961 374.79 112.355 375.458C111.749 376.125 111.007 376.655 110.18 377.013C105.282 379.347 99.6789 376.613 94.9629 375.054L78.3665 369.569C76.542 368.966 77.3236 366.068 79.1641 366.677Z" fill="#01C38E"/>
<path d="M120.725 587.176L130.56 590.416L147.738 554.026L133.223 549.244L120.725 587.176Z" fill="#9F616A"/>
<path d="M113.71 595.44L114.38 593.41L116.14 588.06L117.34 584.42L120.62 585.5L121.3 585.45L130.31 584.84L131.51 584.76L133.29 584.64L135.13 584.51L140.27 591.98H140.28C142.201 592.606 143.979 593.607 145.51 594.925C147.042 596.244 148.296 597.853 149.2 599.66C149.31 599.88 149.41 600.1 149.51 600.32C149.758 600.858 149.968 601.413 150.14 601.98C150.918 604.431 151.063 607.039 150.56 609.56C150.431 610.185 150.267 610.803 150.07 611.41L150.04 611.51L149.92 611.88L149.2 611.64L142.88 609.56L120.74 602.27L116.35 600.82L115 600.37H114.99L112.37 599.51L113.71 595.44Z" fill="#2F2E41"/>
<path d="M213.945 595.731L224.299 595.73L229.225 555.792L213.943 555.793L213.945 595.731Z" fill="#9F616A"/>
<path d="M230.516 420.653L235.106 428.593C235.106 428.593 240.149 429.97 238.501 446.411C237.337 458.021 236.96 510.001 234.029 543.77C232.809 557.825 231.148 568.725 228.803 572.247L227.359 573.54L212.292 574.98L211.913 574.847L206.38 535.771C205.387 528.756 205.535 521.627 206.82 514.66L207.82 503.66L193.947 447.963C193.947 447.963 179.82 483.66 170.82 517.66C168.654 525.845 160.424 531.05 157.304 538.073C156.259 540.426 155.232 542.706 154.23 544.894C147.631 559.3 144.323 569.789 141.82 570.66H139.82L127.82 566.66L125.459 560.725L143.82 506.66L157.569 419.366C183.767 405.28 208.341 403.712 230.516 420.653Z" fill="#2F2E41"/>
<path d="M155.47 303.03C156.374 301.038 157.438 299.122 158.65 297.3C161.42 292.982 165.271 289.463 169.82 287.09L173.76 286.22L180.82 284.66L184.54 280.49L190.64 273.66H211.64L214.45 280.49L216.81 286.22L217.82 288.66L235.8 297.65C235.81 297.65 235.81 297.65 235.82 297.66C235.58 299.46 235.343 301.25 235.11 303.03C234.6 306.9 234.12 310.723 233.67 314.5C233.44 316.42 233.22 318.33 233.01 320.23C232.34 326.19 231.763 332.047 231.28 337.8C230.85 342.94 230.506 348.007 230.25 353C229.624 364.34 229.578 375.705 230.11 387.05C230.25 389.72 227.6 392.76 227.81 395.37C228.16 399.63 231.45 403.41 232.03 407.48C232.39 409.98 232.23 412.64 232.86 415C233.035 415.691 233.297 416.356 233.64 416.98C233.64 416.99 233.65 416.99 233.65 417C240.85 429.86 235.2 423.72 235.87 426.61L235.55 426.69C235.4 426.73 234.94 426.85 234.2 427.02C229.97 428.03 212.53 411.66 200.82 411.66C193.79 411.66 175.18 423.22 168.95 424.06C164.02 424.72 159.62 425.32 157 423.01C156.239 422.336 155.659 421.484 155.31 420.53L155.28 420.44L155.29 420.35L155.54 417L155.69 415L157.83 386.3C159.025 384.818 159.78 383.031 160.01 381.141C160.24 379.252 159.935 377.335 159.13 375.61L158.69 374.68L160.31 353L160.61 348.95L160.72 347.58V347.57L161.5 337.1L159.62 331.38V331.37L155.96 320.23L154.08 314.5L152.9 310.9L152.82 310.66C153.449 308.036 154.337 305.48 155.47 303.03Z" fill="#01C38E"/>
<path d="M137.227 406.44L157.386 354.338L166.75 335.313L148.745 325.366L134.244 350.915L124.523 404.296C122.993 405.341 121.81 406.819 121.127 408.541C120.443 410.263 120.29 412.15 120.687 413.96C121.084 415.769 122.013 417.419 123.354 418.697C124.696 419.974 126.389 420.822 128.216 421.13C130.043 421.438 131.92 421.193 133.606 420.426C135.293 419.659 136.712 418.406 137.68 416.826C138.649 415.247 139.123 413.414 139.042 411.564C138.962 409.713 138.329 407.928 137.227 406.44Z" fill="#9F616A"/>
<path d="M136.82 334.66L141.98 331.32L147.91 320.23L150.97 314.5L152.9 310.9L153.72 309.36L162.99 303.03L169.25 298.75L174.35 303.03L176.78 305.07L174.4 314.5L172.96 320.23L169.82 332.66L160.61 348.95L158.32 353L157.01 355.33L157 355.35L156.82 355.66L133.55 354.69L132.82 354.66L132.78 353L132.76 352.4C132.75 352.1 132.75 351.8 132.75 351.5C132.753 345.643 134.148 339.872 136.82 334.66Z" fill="#01C38E"/>
<path d="M312.945 385.719L271.704 348.034L257.371 332.407L241.571 345.578L260.12 368.359L306.34 396.78C306.758 398.585 307.707 400.223 309.064 401.485C310.42 402.747 312.123 403.574 313.954 403.86C315.784 404.147 317.658 403.879 319.335 403.093C321.013 402.306 322.416 401.036 323.366 399.445C324.316 397.854 324.769 396.016 324.666 394.166C324.563 392.316 323.909 390.54 322.789 389.064C321.669 387.589 320.133 386.482 318.379 385.886C316.625 385.29 314.732 385.232 312.945 385.719Z" fill="#9F616A"/>
<path d="M227.81 320.23L227.89 314.5L228.04 303.03L228.1 298.58L228.27 298.46C229.201 297.849 230.257 297.453 231.36 297.3C232.33 297.139 233.32 297.139 234.29 297.3C234.801 297.379 235.306 297.496 235.8 297.65C235.81 297.65 235.81 297.65 235.82 297.66C238.784 298.724 241.402 300.578 243.39 303.02L243.4 303.03C246.399 306.597 249.057 310.437 251.34 314.5C252.47 316.42 253.55 318.36 254.56 320.23C258.38 327.34 261.13 333.5 261.18 333.61L272.6 348.44L272.44 348.71L269.93 353L260.73 368.73L259.27 371.23L255.54 369.24C251.192 366.92 247.764 363.189 245.82 358.66L244.49 353.58L244 353L231.28 337.8L227.64 333.44L227.81 320.23Z" fill="#01C38E"/>
<path d="M184.225 254.09C182.522 243.596 189.648 233.707 200.143 232.004C210.638 230.301 220.526 237.428 222.229 247.923C223.932 258.417 216.805 268.306 206.31 270.009C195.816 271.712 185.928 264.585 184.225 254.09Z" fill="#9F616A"/>
<path d="M221.836 238.386C222.692 235.392 224.403 232.825 223.547 232.825C222.692 232.825 222.264 230.686 222.264 230.686C222.264 230.686 221.408 230.258 220.98 230.686C220.553 231.114 220.125 227.692 220.125 227.692C220.125 227.692 219.697 226.408 219.269 227.264C218.841 228.119 218.841 227.692 218.414 226.408C217.986 225.125 215.847 224.269 215.847 224.269C215.847 224.269 207.719 224.697 206.435 222.986C205.152 221.275 190.607 222.558 187.612 224.697C184.618 226.836 172.82 230.66 179.82 242.66C175.82 249.66 181.791 262.145 183.334 263.626C185.774 265.969 187.463 266.813 199.009 269.111C201.268 269.56 206.82 250.66 206.82 250.66C206.82 250.66 220.98 241.381 221.836 238.386Z" fill="#2F2E41"/>
<path d="M213.32 594.17L213.94 593.92L225.08 589.38L226.79 588.69L234.01 594.17H234.02C238.099 594.175 242.01 595.798 244.893 598.683C247.777 601.569 249.398 605.481 249.4 609.56V610.06H209.87V594.17H213.32Z" fill="#2F2E41"/>
<path d="M97.1299 610.75C97.1293 610.907 97.1595 611.062 97.219 611.208C97.2784 611.353 97.3659 611.485 97.4764 611.596C97.5869 611.708 97.7183 611.797 97.863 611.857C98.0078 611.918 98.163 611.949 98.3199 611.95H301.62C301.937 611.95 302.241 611.824 302.465 611.6C302.689 611.376 302.815 611.072 302.815 610.755C302.815 610.438 302.689 610.134 302.465 609.91C302.241 609.686 301.937 609.56 301.62 609.56H98.3199C98.0046 609.561 97.7023 609.686 97.4793 609.909C97.2563 610.132 97.1307 610.435 97.1299 610.75Z" fill="#CCCCCC"/>
<path d="M307.02 0C308.593 27.967 318.873 54.7418 336.421 76.5753C353.969 98.4088 377.906 114.208 404.88 121.76C404.91 122.46 404.94 123.16 404.95 123.86C377.417 116.286 352.959 100.255 335.028 78.0307C317.098 55.8065 306.601 28.5117 305.02 0H307.02Z" fill="white"/>
<path d="M337.65 0C342.297 17.6567 350.489 34.1829 361.727 48.5724C372.965 62.962 387.015 74.9137 403.02 83.7C403.08 84.49 403.12 85.27 403.16 86.06C386.573 77.1467 372.007 64.9009 360.378 50.0912C348.748 35.2814 340.305 18.2275 335.58 0H337.65Z" fill="white"/>
</g>
<defs>
<clipPath id="clip0_72_4297">
<rect width="405.949" height="611.97" fill="white" transform="matrix(-1 0 0 1 405.949 0)"/>
</clipPath>
</defs>
</svg>
