<svg width="1173" height="238" viewBox="0 0 1173 238" fill="none" xmlns="http://www.w3.org/2000/svg">
<path d="M140.727 92L135.57 75.5938H111.805L106.648 92H92.1172L115.602 24.3594H132.242L155.773 92H140.727ZM123.523 37.2969L114.852 65H132.523L123.852 37.2969H123.523ZM161.867 92V24.3594H175.555V92H161.867ZM185.117 92V24.3594H198.805V92H185.117ZM230.727 30.1719H244.414V41.75H253.695V52.0625H244.414V76.1094C244.414 79.9531 246.289 81.7812 250.32 81.7812C251.539 81.7812 252.805 81.6875 253.648 81.5469V91.625C252.242 91.9531 249.898 92.1875 247.133 92.1875C235.32 92.1875 230.727 88.25 230.727 78.4531V52.0625H223.648V41.75H230.727V30.1719ZM261.523 92V24.3594H274.977V50.7031H275.258C277.93 44.375 283.414 40.8125 291.055 40.8125C302.211 40.8125 308.586 48.0312 308.586 59.6562V92H294.898V62.5625C294.898 56.0938 291.711 52.1562 285.477 52.1562C279.008 52.1562 275.211 56.7031 275.211 63.3125V92H261.523ZM339.898 50.7969C333.898 50.7969 329.586 55.3438 329.117 61.625H350.445C350.164 55.2031 345.992 50.7969 339.898 50.7969ZM350.633 76.625H363.195C361.695 86.4688 352.695 93.0781 340.273 93.0781C324.805 93.0781 315.523 83.1875 315.523 67.1094C315.523 51.0781 324.898 40.6719 339.758 40.6719C354.383 40.6719 363.617 50.5625 363.617 65.8438V70.0156H328.977V70.8594C328.977 78.0312 333.523 82.9531 340.508 82.9531C345.523 82.9531 349.367 80.4688 350.633 76.625ZM393.383 30.1719H407.07V41.75H416.352V52.0625H407.07V76.1094C407.07 79.9531 408.945 81.7812 412.977 81.7812C414.195 81.7812 415.461 81.6875 416.305 81.5469V91.625C414.898 91.9531 412.555 92.1875 409.789 92.1875C397.977 92.1875 393.383 88.25 393.383 78.4531V52.0625H386.305V41.75H393.383V30.1719ZM445.648 50.7969C439.648 50.7969 435.336 55.3438 434.867 61.625H456.195C455.914 55.2031 451.742 50.7969 445.648 50.7969ZM456.383 76.625H468.945C467.445 86.4688 458.445 93.0781 446.023 93.0781C430.555 93.0781 421.273 83.1875 421.273 67.1094C421.273 51.0781 430.648 40.6719 445.508 40.6719C460.133 40.6719 469.367 50.5625 469.367 65.8438V70.0156H434.727V70.8594C434.727 78.0312 439.273 82.9531 446.258 82.9531C451.273 82.9531 455.117 80.4688 456.383 76.625ZM522.102 60.4531H509.398C508.602 55.1562 505.086 51.4062 499.461 51.4062C492.711 51.4062 488.492 57.125 488.492 66.8281C488.492 76.7188 492.711 82.3438 499.508 82.3438C504.992 82.3438 508.555 79.0625 509.398 73.5781H522.148C521.445 85.4375 512.586 93.0781 499.367 93.0781C484.227 93.0781 474.617 83.2344 474.617 66.8281C474.617 50.7031 484.227 40.6719 499.273 40.6719C512.867 40.6719 521.492 49.0625 522.102 60.4531ZM529.086 92V24.3594H542.539V50.7031H542.82C545.492 44.375 550.977 40.8125 558.617 40.8125C569.773 40.8125 576.148 48.0312 576.148 59.6562V92H562.461V62.5625C562.461 56.0938 559.273 52.1562 553.039 52.1562C546.57 52.1562 542.773 56.7031 542.773 63.3125V92H529.086ZM618.148 61.9062L635.211 41.75H650.727L631.555 63.3125L651.664 92H635.914L621.523 71.5625L617.961 75.4062V92H604.273V24.3594H617.961V61.9062H618.148ZM655.602 92V41.75H668.82V50.7031H669.102C671.773 44.4688 677.07 40.8125 684.805 40.8125C695.961 40.8125 702.242 47.8438 702.242 59.6094V92H688.555V62.4688C688.555 55.9062 685.461 52.1562 679.32 52.1562C673.18 52.1562 669.289 56.6562 669.289 63.1719V92H655.602ZM733.977 93.0781C718.789 93.0781 709.086 83.3281 709.086 66.8281C709.086 50.5625 718.93 40.6719 733.977 40.6719C749.023 40.6719 758.867 50.5156 758.867 66.8281C758.867 83.375 749.164 93.0781 733.977 93.0781ZM733.977 82.625C740.68 82.625 744.945 76.9531 744.945 66.875C744.945 56.8906 740.633 51.125 733.977 51.125C727.32 51.125 722.961 56.8906 722.961 66.875C722.961 76.9531 727.227 82.625 733.977 82.625ZM835.977 41.75L822.664 92H808.086L798.992 56.4688H798.711L789.664 92H775.273L761.914 41.75H775.695L783.289 79.0156H783.57L792.477 41.75H805.602L814.555 79.0156H814.836L822.477 41.75H835.977ZM841.648 92V24.3594H855.336V92H841.648ZM887.117 50.7969C881.117 50.7969 876.805 55.3438 876.336 61.625H897.664C897.383 55.2031 893.211 50.7969 887.117 50.7969ZM897.852 76.625H910.414C908.914 86.4688 899.914 93.0781 887.492 93.0781C872.023 93.0781 862.742 83.1875 862.742 67.1094C862.742 51.0781 872.117 40.6719 886.977 40.6719C901.602 40.6719 910.836 50.5625 910.836 65.8438V70.0156H876.195V70.8594C876.195 78.0312 880.742 82.9531 887.727 82.9531C892.742 82.9531 896.586 80.4688 897.852 76.625ZM936.57 92.7969C924.008 92.7969 916.086 82.8594 916.086 66.7812C916.086 50.8438 924.055 40.9531 936.664 40.9531C943.93 40.9531 949.555 44.7969 951.992 50.375H952.273V24.3594H965.961V92H952.461V83.375H952.227C949.789 88.9062 943.977 92.7969 936.57 92.7969ZM941.211 51.9219C934.32 51.9219 930.102 57.6875 930.102 66.875C930.102 76.1094 934.32 81.7812 941.211 81.7812C948.008 81.7812 952.367 76.0625 952.367 66.875C952.367 57.7344 948.008 51.9219 941.211 51.9219ZM998.305 81.3125C1005.15 81.3125 1009.51 75.875 1009.51 66.7812C1009.51 57.7344 1005.15 51.9219 998.305 51.9219C991.555 51.9219 987.289 57.6406 987.289 66.7812C987.289 75.9688 991.508 81.3125 998.305 81.3125ZM998.07 110.938C984.852 110.938 975.898 104.516 974.82 95.5625H988.227C989.305 99.0312 993.242 101.422 998.445 101.422C1005.52 101.422 1009.46 97.4844 1009.46 91.6719V82.8594H1009.18C1006.84 88.2031 1000.93 91.8594 993.664 91.8594C981.383 91.8594 973.273 82.3906 973.273 66.6875C973.273 50.75 981.148 40.9531 993.898 40.9531C1001.12 40.9531 1006.79 44.75 1009.41 50.5156H1009.65V41.75H1023.15V91.2969C1023.15 103.297 1013.12 110.938 998.07 110.938ZM1054.65 50.7969C1048.65 50.7969 1044.34 55.3438 1043.87 61.625H1065.2C1064.91 55.2031 1060.74 50.7969 1054.65 50.7969ZM1065.38 76.625H1077.95C1076.45 86.4688 1067.45 93.0781 1055.02 93.0781C1039.55 93.0781 1030.27 83.1875 1030.27 67.1094C1030.27 51.0781 1039.65 40.6719 1054.51 40.6719C1069.13 40.6719 1078.37 50.5625 1078.37 65.8438V70.0156H1043.73V70.8594C1043.73 78.0312 1048.27 82.9531 1055.26 82.9531C1060.27 82.9531 1064.12 80.4688 1065.38 76.625Z" fill="white"/>
<path d="M10.875 233.609C10.4062 233.609 6.14062 233.562 5.71875 233.469V222.922C6.14062 223.016 8.625 223.016 9.14062 223.016C14.1562 223.016 16.6406 221.422 17.5781 217.438C17.5781 217.25 18.0938 215.234 18 215.047L0.515625 164.75H15.5625L26.25 204.031H26.4844L37.1719 164.75H51.6094L34.3125 216.125C30 229.016 23.7188 233.609 10.875 233.609ZM78.2344 216.078C63.0469 216.078 53.3438 206.328 53.3438 189.828C53.3438 173.562 63.1875 163.672 78.2344 163.672C93.2812 163.672 103.125 173.516 103.125 189.828C103.125 206.375 93.4219 216.078 78.2344 216.078ZM78.2344 205.625C84.9375 205.625 89.2031 199.953 89.2031 189.875C89.2031 179.891 84.8906 174.125 78.2344 174.125C71.5781 174.125 67.2188 179.891 67.2188 189.875C67.2188 199.953 71.4844 205.625 78.2344 205.625ZM156.609 164.75V215H143.391V205.953H143.109C140.625 212.281 135.656 215.938 128.062 215.938C117.188 215.938 109.969 208.859 109.969 197.141V164.75H123.656V194.281C123.656 200.984 126.984 204.547 133.031 204.547C139.125 204.547 142.922 200.188 142.922 193.531V164.75H156.609ZM184.547 215V164.75H197.766V173.703H198.047C200.719 167.469 206.016 163.812 213.75 163.812C224.906 163.812 231.188 170.844 231.188 182.609V215H217.5V185.469C217.5 178.906 214.406 175.156 208.266 175.156C202.125 175.156 198.234 179.656 198.234 186.172V215H184.547ZM262.406 173.797C256.406 173.797 252.094 178.344 251.625 184.625H272.953C272.672 178.203 268.5 173.797 262.406 173.797ZM273.141 199.625H285.703C284.203 209.469 275.203 216.078 262.781 216.078C247.312 216.078 238.031 206.188 238.031 190.109C238.031 174.078 247.406 163.672 262.266 163.672C276.891 163.672 286.125 173.562 286.125 188.844V193.016H251.484V193.859C251.484 201.031 256.031 205.953 263.016 205.953C268.031 205.953 271.875 203.469 273.141 199.625ZM315.75 173.797C309.75 173.797 305.438 178.344 304.969 184.625H326.297C326.016 178.203 321.844 173.797 315.75 173.797ZM326.484 199.625H339.047C337.547 209.469 328.547 216.078 316.125 216.078C300.656 216.078 291.375 206.188 291.375 190.109C291.375 174.078 300.75 163.672 315.609 163.672C330.234 163.672 339.469 173.562 339.469 188.844V193.016H304.828V193.859C304.828 201.031 309.375 205.953 316.359 205.953C321.375 205.953 325.219 203.469 326.484 199.625ZM365.203 215.797C352.641 215.797 344.719 205.859 344.719 189.781C344.719 173.844 352.688 163.953 365.297 163.953C372.562 163.953 378.188 167.797 380.625 173.375H380.906V147.359H394.594V215H381.094V206.375H380.859C378.422 211.906 372.609 215.797 365.203 215.797ZM369.844 174.922C362.953 174.922 358.734 180.688 358.734 189.875C358.734 199.109 362.953 204.781 369.844 204.781C376.641 204.781 381 199.062 381 189.875C381 180.734 376.641 174.922 369.844 174.922ZM413.812 229.812H403.547L407.062 203.375H420.094L413.812 229.812ZM443.859 215V164.75H457.078V173.797H457.359C459.141 167.422 463.406 163.953 469.312 163.953C470.906 163.953 472.266 164.188 473.203 164.469V176.516C472.078 176.047 470.203 175.719 468.234 175.719C461.484 175.719 457.547 179.844 457.547 186.922V215H443.859ZM479.062 215V164.75H492.75V215H479.062ZM485.906 159.219C481.781 159.219 478.594 156.078 478.594 152.141C478.594 148.156 481.781 145.062 485.906 145.062C490.031 145.062 493.219 148.156 493.219 152.141C493.219 156.078 490.031 159.219 485.906 159.219ZM525.094 204.312C531.938 204.312 536.297 198.875 536.297 189.781C536.297 180.734 531.938 174.922 525.094 174.922C518.344 174.922 514.078 180.641 514.078 189.781C514.078 198.969 518.297 204.312 525.094 204.312ZM524.859 233.938C511.641 233.938 502.688 227.516 501.609 218.562H515.016C516.094 222.031 520.031 224.422 525.234 224.422C532.312 224.422 536.25 220.484 536.25 214.672V205.859H535.969C533.625 211.203 527.719 214.859 520.453 214.859C508.172 214.859 500.062 205.391 500.062 189.688C500.062 173.75 507.938 163.953 520.688 163.953C527.906 163.953 533.578 167.75 536.203 173.516H536.438V164.75H549.938V214.297C549.938 226.297 539.906 233.938 524.859 233.938ZM559.219 215V147.359H572.672V173.703H572.953C575.625 167.375 581.109 163.812 588.75 163.812C599.906 163.812 606.281 171.031 606.281 182.656V215H592.594V185.562C592.594 179.094 589.406 175.156 583.172 175.156C576.703 175.156 572.906 179.703 572.906 186.312V215H559.219ZM618.703 153.172H632.391V164.75H641.672V175.062H632.391V199.109C632.391 202.953 634.266 204.781 638.297 204.781C639.516 204.781 640.781 204.688 641.625 204.547V214.625C640.219 214.953 637.875 215.188 635.109 215.188C623.297 215.188 618.703 211.25 618.703 201.453V175.062H611.625V164.75H618.703V153.172ZM668.438 215V164.75H682.125V215H668.438ZM675.281 159.219C671.156 159.219 667.969 156.078 667.969 152.141C667.969 148.156 671.156 145.062 675.281 145.062C679.406 145.062 682.594 148.156 682.594 152.141C682.594 156.078 679.406 159.219 675.281 159.219ZM691.266 215V164.75H704.484V173.703H704.766C707.438 167.469 712.734 163.812 720.469 163.812C731.625 163.812 737.906 170.844 737.906 182.609V215H724.219V185.469C724.219 178.906 721.125 175.156 714.984 175.156C708.844 175.156 704.953 179.656 704.953 186.172V215H691.266Z" fill="white"/>
<path d="M925.166 136.513H904.971C904.971 166.124 928.977 190.137 958.595 190.137V169.942C940.127 169.942 925.166 154.975 925.166 136.513Z" fill="#01C38E" stroke="#333333" stroke-width="0.706086" stroke-miterlimit="10"/>
<path d="M904.47 224.996V224.49C904.47 194.643 928.752 170.36 958.6 170.36H959.106V191.567H958.6C940.449 191.567 925.677 206.339 925.677 224.49V224.996H904.47Z" fill="#01C38E"/>
<path d="M958.598 170.864V191.059C940.136 191.059 925.169 206.02 925.169 224.488H904.974C904.974 194.87 928.987 170.864 958.598 170.864ZM959.61 169.852H958.598C928.474 169.852 903.962 194.364 903.962 224.488V225.5H926.181V224.488C926.181 206.613 940.723 192.071 958.598 192.071H959.61V169.852Z" fill="#333333"/>
<path d="M793.445 224.49H813.64C813.64 194.879 789.634 170.866 760.016 170.866V191.061C778.484 191.061 793.445 206.028 793.445 224.49Z" fill="#01C38E" stroke="#333333" stroke-width="0.706086" stroke-miterlimit="10"/>
<path d="M759.503 190.643V169.436H760.009C778.16 169.436 792.932 154.664 792.932 136.512V136.006H814.139V136.512C814.139 166.36 789.856 190.643 760.009 190.643H759.503Z" fill="#01C38E"/>
<path d="M813.636 136.512C813.636 166.13 789.623 190.136 760.012 190.136V169.941C778.473 169.941 793.441 154.98 793.441 136.512H813.636ZM814.648 135.5H792.429V136.512C792.429 154.387 777.887 168.929 760.012 168.929H759V191.148H760.012C790.136 191.148 814.648 166.636 814.648 136.512V135.5Z" fill="#333333"/>
<path d="M845.614 173.383H825.816V213.517H845.614V173.383Z" fill="#01C38E"/>
<path d="M860.881 141.437H879.127V214.851H878.216C868.651 214.851 860.881 207.088 860.881 197.516V141.437Z" fill="#01C38E"/>
<path d="M835.718 141.437H835.712C830.247 141.437 825.816 145.867 825.816 151.332V151.338C825.816 156.803 830.247 161.234 835.712 161.234H835.718C841.183 161.234 845.614 156.803 845.614 151.338V151.332C845.614 145.867 841.183 141.437 835.718 141.437Z" fill="#01C38E"/>
<path d="M896.321 196.168H879.121V214.852H896.321V196.168Z" fill="#01C38E"/>
<path d="M894.656 161.232H877.456V179.99H894.656V161.232Z" fill="#01C38E"/>
<path d="M1011.19 215H981.235V147.359H1010.67C1023.38 147.359 1031.34 153.875 1031.34 164.234C1031.34 171.641 1025.81 177.828 1018.64 178.906V179.281C1027.83 179.984 1034.58 186.688 1034.58 195.641C1034.58 207.547 1025.63 215 1011.19 215ZM995.391 157.906V175.484H1005.56C1013.11 175.484 1017.42 172.156 1017.42 166.438C1017.42 161 1013.63 157.906 1007.02 157.906H995.391ZM995.391 204.453H1007.58C1015.73 204.453 1020.14 200.984 1020.14 194.516C1020.14 188.188 1015.59 184.812 1007.25 184.812H995.391V204.453ZM1041.8 215V147.359H1055.48V215H1041.8ZM1087.78 216.078C1072.59 216.078 1062.89 206.328 1062.89 189.828C1062.89 173.562 1072.73 163.672 1087.78 163.672C1102.83 163.672 1112.67 173.516 1112.67 189.828C1112.67 206.375 1102.97 216.078 1087.78 216.078ZM1087.78 205.625C1094.48 205.625 1098.75 199.953 1098.75 189.875C1098.75 179.891 1094.44 174.125 1087.78 174.125C1081.13 174.125 1076.77 179.891 1076.77 189.875C1076.77 199.953 1081.03 205.625 1087.78 205.625ZM1142.95 204.312C1149.8 204.312 1154.16 198.875 1154.16 189.781C1154.16 180.734 1149.8 174.922 1142.95 174.922C1136.2 174.922 1131.94 180.641 1131.94 189.781C1131.94 198.969 1136.16 204.312 1142.95 204.312ZM1142.72 233.938C1129.5 233.938 1120.55 227.516 1119.47 218.562H1132.88C1133.95 222.031 1137.89 224.422 1143.09 224.422C1150.17 224.422 1154.11 220.484 1154.11 214.672V205.859H1153.83C1151.48 211.203 1145.58 214.859 1138.31 214.859C1126.03 214.859 1117.92 205.391 1117.92 189.688C1117.92 173.75 1125.8 163.953 1138.55 163.953C1145.77 163.953 1151.44 167.75 1154.06 173.516H1154.3V164.75H1167.8V214.297C1167.8 226.297 1157.77 233.938 1142.72 233.938Z" fill="white"/>
</svg>
