<svg width="39" height="40" viewBox="0 0 39 40" fill="none" xmlns="http://www.w3.org/2000/svg">
<g clip-path="url(#clip0_447_28)">
<path d="M38.6692 19.9994C38.6692 9.43573 30.1055 0.87207 19.5419 0.87207C8.97821 0.87207 0.414551 9.43573 0.414551 19.9994C0.414551 29.5463 7.40917 37.4595 16.5532 38.8943V25.5284H11.6967V19.9994H16.5532V15.7854C16.5532 10.9916 19.4089 8.34368 23.778 8.34368C25.8706 8.34368 28.0595 8.71726 28.0595 8.71726V13.4244H25.6477C23.2715 13.4244 22.5305 14.8988 22.5305 16.4115V19.9994H27.8353L26.9873 25.5284H22.5305V38.8943C31.6746 37.4595 38.6692 29.5465 38.6692 19.9994Z" fill="#1877F2"/>
<path d="M26.9884 25.528L27.8364 19.999H22.5316V16.4111C22.5316 14.8983 23.2726 13.424 25.6487 13.424H28.0606V8.71684C28.0606 8.71684 25.8717 8.34326 23.7789 8.34326C19.4099 8.34326 16.5543 10.9912 16.5543 15.785V19.999H11.6978V25.528H16.5543V38.8939C17.543 39.0489 18.5422 39.1265 19.5429 39.1263C20.5437 39.1266 21.5429 39.0489 22.5316 38.8939V25.528H26.9884Z" fill="white"/>
</g>
<defs>
<clipPath id="clip0_447_28">
<rect width="38.2546" height="38.2546" fill="white" transform="translate(0.414062 0.872559)"/>
</clipPath>
</defs>
</svg>
