<svg width="39" height="40" viewBox="0 0 39 40" fill="none" xmlns="http://www.w3.org/2000/svg">
<g clip-path="url(#clip0_447_23)">
<path d="M29.4489 0.872559H9.12608C4.17434 0.872559 0.160156 4.88674 0.160156 9.83849V30.1613C0.160156 35.113 4.17434 39.1272 9.12608 39.1272H29.4489C34.4006 39.1272 38.4148 35.113 38.4148 30.1613V9.83849C38.4148 4.88674 34.4006 0.872559 29.4489 0.872559Z" fill="url(#paint0_radial_447_23)"/>
<path d="M29.4489 0.872559H9.12608C4.17434 0.872559 0.160156 4.88674 0.160156 9.83849V30.1613C0.160156 35.113 4.17434 39.1272 9.12608 39.1272H29.4489C34.4006 39.1272 38.4148 35.113 38.4148 30.1613V9.83849C38.4148 4.88674 34.4006 0.872559 29.4489 0.872559Z" fill="url(#paint1_radial_447_23)"/>
<path d="M19.2873 5.05664C15.2291 5.05664 14.7196 5.07442 13.1258 5.1469C11.5349 5.21982 10.449 5.47161 9.49893 5.84116C8.51596 6.22281 7.68228 6.73342 6.85174 7.56426C6.02045 8.39495 5.50984 9.22864 5.12699 10.2112C4.7564 11.1615 4.50431 12.2479 4.43273 13.838C4.36145 15.432 4.34277 15.9416 4.34277 20C4.34277 24.0584 4.36071 24.5662 4.43303 26.16C4.50625 27.7509 4.75805 28.8368 5.12729 29.7869C5.50924 30.7699 6.01985 31.6036 6.85069 32.4341C7.68109 33.2654 8.51477 33.7772 9.49699 34.1588C10.4478 34.5284 11.5339 34.7802 13.1245 34.8531C14.7184 34.9256 15.2274 34.9434 19.2855 34.9434C23.3443 34.9434 23.852 34.9256 25.4459 34.8531C27.0367 34.7802 28.1238 34.5284 29.0747 34.1588C30.0572 33.7772 30.8897 33.2654 31.7199 32.4341C32.5512 31.6036 33.0617 30.7699 33.4447 29.7874C33.812 28.8368 34.0642 27.7506 34.1389 26.1603C34.2105 24.5665 34.2292 24.0584 34.2292 20C34.2292 15.9416 34.2105 15.4323 34.1389 13.8383C34.0642 12.2475 33.812 11.1617 33.4447 10.2116C33.0617 9.22864 32.5512 8.39495 31.7199 7.56426C30.8888 6.73312 30.0575 6.22251 29.0738 5.84131C28.1212 5.47161 27.0346 5.21967 25.4438 5.1469C23.8498 5.07442 23.3423 5.05664 19.2827 5.05664H19.2873ZM17.9468 7.74956C18.3447 7.74896 18.7887 7.74956 19.2873 7.74956C23.2773 7.74956 23.7501 7.7639 25.3257 7.83548C26.7827 7.90213 27.5735 8.14555 28.1002 8.35012C28.7976 8.6209 29.2948 8.94472 29.8175 9.46788C30.3405 9.99089 30.6642 10.4889 30.9357 11.1863C31.1403 11.7123 31.384 12.5031 31.4504 13.9601C31.5219 15.5354 31.5375 16.0085 31.5375 19.9966C31.5375 23.9846 31.5219 24.4579 31.4504 26.033C31.3837 27.49 31.1403 28.2808 30.9357 28.8069C30.6649 29.5043 30.3405 30.0009 29.8175 30.5236C29.2945 31.0466 28.7979 31.3703 28.1002 31.6412C27.5741 31.8467 26.7827 32.0895 25.3257 32.1562C23.7504 32.2277 23.2773 32.2433 19.2873 32.2433C15.2972 32.2433 14.8242 32.2277 13.2491 32.1562C11.7921 32.0889 11.0013 31.8455 10.4741 31.6409C9.77687 31.37 9.27867 31.0463 8.75565 30.5233C8.23264 30.0003 7.90897 29.5034 7.63745 28.8057C7.43288 28.2796 7.18916 27.4888 7.12281 26.0318C7.05123 24.4565 7.03689 23.9834 7.03689 19.9928C7.03689 16.0024 7.05123 15.5317 7.12281 13.9564C7.18946 12.4994 7.43288 11.7086 7.63745 11.1819C7.90837 10.4845 8.23264 9.98641 8.7558 9.46339C9.27882 8.94038 9.77687 8.61656 10.4743 8.34519C11.001 8.13972 11.7921 7.8969 13.2491 7.82995C14.6276 7.76764 15.1618 7.74896 17.9468 7.74582V7.74956ZM27.264 10.2307C26.274 10.2307 25.4708 11.0332 25.4708 12.0233C25.4708 13.0133 26.274 13.8165 27.264 13.8165C28.254 13.8165 29.0572 13.0133 29.0572 12.0233C29.0572 11.0333 28.254 10.2301 27.264 10.2301V10.2307ZM19.2873 12.3259C15.0494 12.3259 11.6134 15.762 11.6134 20C11.6134 24.238 15.0494 27.6724 19.2873 27.6724C23.5254 27.6724 26.9602 24.238 26.9602 20C26.9602 15.7621 23.5251 12.3259 19.287 12.3259H19.2873ZM19.2873 15.0188C22.0382 15.0188 24.2685 17.2488 24.2685 20C24.2685 22.7509 22.0382 24.9812 19.2873 24.9812C16.5363 24.9812 14.3063 22.7509 14.3063 20C14.3063 17.2488 16.5363 15.0188 19.2873 15.0188Z" fill="white"/>
</g>
<defs>
<radialGradient id="paint0_radial_447_23" cx="0" cy="0" r="1" gradientUnits="userSpaceOnUse" gradientTransform="translate(10.3215 42.0735) rotate(-90) scale(37.9132 35.2622)">
<stop stop-color="#FFDD55"/>
<stop offset="0.1" stop-color="#FFDD55"/>
<stop offset="0.5" stop-color="#FF543E"/>
<stop offset="1" stop-color="#C837AB"/>
</radialGradient>
<radialGradient id="paint1_radial_447_23" cx="0" cy="0" r="1" gradientUnits="userSpaceOnUse" gradientTransform="translate(-6.24764 3.62824) rotate(78.681) scale(16.9474 69.8577)">
<stop stop-color="#3771C8"/>
<stop offset="0.128" stop-color="#3771C8"/>
<stop offset="1" stop-color="#6600FF" stop-opacity="0"/>
</radialGradient>
<clipPath id="clip0_447_23">
<rect width="38.2546" height="38.2546" fill="white" transform="translate(0.159668 0.872559)"/>
</clipPath>
</defs>
</svg>
