<svg width="40" height="40" viewBox="0 0 40 40" fill="none" xmlns="http://www.w3.org/2000/svg">
<g clip-path="url(#clip0_447_36)">
<path d="M30.2106 0.872559H9.8878C4.93606 0.872559 0.921875 4.88674 0.921875 9.83849V30.1613C0.921875 35.113 4.93606 39.1272 9.8878 39.1272H30.2106C35.1623 39.1272 39.1765 35.113 39.1765 30.1613V9.83849C39.1765 4.88674 35.1623 0.872559 30.2106 0.872559Z" fill="white"/>
<path d="M30.2106 0.872559H9.8878C4.93606 0.872559 0.921875 4.88674 0.921875 9.83849V30.1613C0.921875 35.113 4.93606 39.1272 9.8878 39.1272H30.2106C35.1623 39.1272 39.1765 35.113 39.1765 30.1613V9.83849C39.1765 4.88674 35.1623 0.872559 30.2106 0.872559Z" fill="#0A66C2"/>
<path d="M28.5235 33.4015H32.8974C33.0559 33.4015 33.2079 33.3385 33.32 33.2265C33.4321 33.1144 33.4951 32.9624 33.4951 32.8039L33.4974 23.5627C33.4974 18.7326 32.4566 15.02 26.8121 15.02C24.6664 14.9402 22.6429 16.0463 21.551 17.8933C21.5457 17.9022 21.5376 17.9092 21.5279 17.9131C21.5182 17.9171 21.5075 17.9177 21.4975 17.915C21.4874 17.9123 21.4785 17.9063 21.4721 17.898C21.4657 17.8898 21.4622 17.8797 21.4621 17.8692V16.0636C21.4621 15.9051 21.3992 15.7531 21.2871 15.641C21.175 15.5289 21.0229 15.4659 20.8644 15.4659H16.7136C16.5551 15.4659 16.4031 15.5289 16.291 15.641C16.1789 15.7531 16.1159 15.9051 16.1159 16.0636V32.803C16.1159 32.9615 16.1789 33.1136 16.291 33.2257C16.4031 33.3378 16.5551 33.4007 16.7136 33.4007H21.0872C21.2457 33.4007 21.3978 33.3378 21.5099 33.2257C21.622 33.1136 21.6849 32.9615 21.6849 32.803V24.5285C21.6849 22.1889 22.1287 19.923 25.0294 19.923C27.8888 19.923 27.9258 22.6002 27.9258 24.68V32.8038C27.9258 32.9623 27.9888 33.1143 28.1009 33.2264C28.213 33.3385 28.365 33.4015 28.5235 33.4015ZM6.59961 9.7827C6.59961 11.5556 8.05911 13.0143 9.83212 13.0143C11.6047 13.0142 13.0633 11.5545 13.0633 9.78195C13.063 8.00939 11.6042 6.55078 9.83153 6.55078C8.05837 6.55078 6.59961 8.00984 6.59961 9.7827ZM7.63951 33.4015H12.0189C12.1774 33.4015 12.3295 33.3385 12.4416 33.2264C12.5537 33.1143 12.6166 32.9623 12.6166 32.8038V16.0636C12.6166 15.9051 12.5537 15.7531 12.4416 15.641C12.3295 15.5289 12.1774 15.4659 12.0189 15.4659H7.63951C7.48098 15.4659 7.32895 15.5289 7.21685 15.641C7.10475 15.7531 7.04178 15.9051 7.04178 16.0636V32.8038C7.04178 32.9623 7.10475 33.1143 7.21685 33.2264C7.32895 33.3385 7.48098 33.4015 7.63951 33.4015Z" fill="white"/>
</g>
<defs>
<clipPath id="clip0_447_36">
<rect width="38.2546" height="38.2546" fill="white" transform="translate(0.92334 0.872559)"/>
</clipPath>
</defs>
</svg>
