<svg width="39" height="40" viewBox="0 0 39 40" fill="none" xmlns="http://www.w3.org/2000/svg">
<g clip-path="url(#clip0_447_31)">
<path d="M29.9562 0.872559H9.63341C4.68166 0.872559 0.66748 4.88674 0.66748 9.83849V30.1613C0.66748 35.113 4.68166 39.1272 9.63341 39.1272H29.9562C34.9079 39.1272 38.9221 35.113 38.9221 30.1613V9.83849C38.9221 4.88674 34.9079 0.872559 29.9562 0.872559Z" fill="white"/>
<path d="M29.9562 0.872559H9.63341C4.68166 0.872559 0.66748 4.88674 0.66748 9.83849V30.1613C0.66748 35.113 4.68166 39.1272 9.63341 39.1272H29.9562C34.9079 39.1272 38.9221 35.113 38.9221 30.1613V9.83849C38.9221 4.88674 34.9079 0.872559 29.9562 0.872559Z" fill="#1D9BF0"/>
<path d="M30.4893 14.5323C30.5057 14.7694 30.5057 15.0066 30.5057 15.246C30.5057 22.5378 24.9546 30.9475 14.8041 30.9475V30.9431C11.8055 30.9474 8.86898 30.0886 6.34521 28.4692C6.78126 28.5217 7.21939 28.5478 7.65872 28.5489C10.1441 28.5508 12.5579 27.7172 14.5124 26.182C13.3609 26.1603 12.2449 25.7792 11.3205 25.0921C10.3962 24.405 9.70961 23.4462 9.35687 22.3498C10.1836 22.5092 11.036 22.4767 11.8482 22.2548C9.27378 21.7346 7.42157 19.4726 7.42157 16.8456V16.7757C8.18904 17.2032 9.04797 17.44 9.92606 17.4664C7.50137 15.8458 6.75391 12.62 8.21805 10.0979C9.60348 11.8027 11.3321 13.1971 13.2915 14.1904C15.2509 15.1837 17.3974 15.7536 19.5915 15.8633C19.3727 14.9216 19.405 13.939 19.6852 13.0138C19.9653 12.0885 20.4835 11.253 21.1879 10.5909C23.4105 8.50149 26.9062 8.60864 28.9955 10.8301C30.2313 10.5861 31.4165 10.1331 32.4999 9.49044C32.0879 10.7682 31.2258 11.8528 30.074 12.5424C31.1679 12.4136 32.2362 12.1207 33.243 11.6738C32.5024 12.7829 31.5699 13.7508 30.4893 14.5323Z" fill="white"/>
</g>
<defs>
<clipPath id="clip0_447_31">
<rect width="38.2546" height="38.2546" fill="white" transform="translate(0.668945 0.872559)"/>
</clipPath>
</defs>
</svg>
